<svg id="Layer_1" xmlns="http://www.w3.org/2000/svg" viewBox="0 0 130 41"><style>.st0{fill-rule:evenodd;clip-rule:evenodd;fill:#7b797a}</style><path class="st0" d="M40.3.2c1.1-.2 2.2-.2 3.3-.1 1.2.2 2.4.6 3.4 1.2v2.8c-.6-.5-1.3-.9-2.1-1.2-1-.4-2.1-.6-3.1-.5-.5 0-1 .2-1.5.4-.3.2-.5.4-.7.7-.2.4-.2.8-.2 1.2.1.4.3.7.6.9.4.3.8.5 1.3.7 1 .3 1.9.7 2.9 1 .8.3 1.6.7 2.3 1.3.6.6 1.1 1.3 1.2 2.1.2.8.2 1.7 0 2.5-.2.7-.6 1.4-1.2 1.9s-1.4.9-2.2 1.1c-1.1.3-2.2.3-3.4.2-1.4-.2-2.8-.6-4-1.4v-2.9c1.4 1.1 3.2 1.8 5 1.9.8 0 1.6-.1 2.3-.4.4-.2.7-.5.9-.9.2-.5.2-1 0-1.4-.2-.5-.5-.8-.9-1-.7-.4-1.5-.7-2.3-.9-.9-.3-1.9-.6-2.8-1.1-.7-.4-1.3-.9-1.7-1.5-.6-.9-.7-1.9-.6-2.9.1-.9.5-1.8 1.2-2.5.7-.6 1.5-1 2.3-1.2zM104.3.9c1.1-.7 2.4-1 3.7-.9 1.6 0 3.3.4 4.6 1.3v2.8c-.6-.4-1.2-.8-1.9-1.1-1.2-.5-2.5-.7-3.7-.5-.7.1-1.4.4-1.7 1-.4.7-.2 1.6.4 2.2.5.4 1.1.6 1.6.8.9.3 1.9.7 2.8 1 .8.3 1.6.8 2.3 1.4.6.6.9 1.4 1.1 2.2.1.9.1 1.8-.3 2.7-.3.7-.8 1.3-1.5 1.8s-1.6.8-2.5 1c-1.2.2-2.5.1-3.7-.1-1-.2-2-.6-2.9-1.2v-2.9c1.1.9 2.4 1.5 3.8 1.8.6.1 1.2.1 1.8.1.6 0 1.3-.2 1.8-.5.4-.3.7-.7.8-1.2.1-.6 0-1.2-.4-1.6-.3-.4-.8-.6-1.3-.8-.8-.3-1.5-.6-2.3-.9-.7-.3-1.5-.5-2.2-.9-.6-.4-1.2-.9-1.6-1.5-.4-.6-.6-1.3-.6-2.1 0-.7 0-1.3.3-1.9.3-.9.9-1.5 1.6-2zM121.9.4c.8-.3 1.6-.4 2.4-.4 1.7 0 3.4.4 4.8 1.3.1 0 .1.1.1.1v2.7c-.7-.5-1.4-.9-2.1-1.2-1-.4-2-.6-3-.5-.5 0-1.1.2-1.5.4-.3.2-.6.5-.8.8-.3.7-.1 1.6.5 2.1s1.5.7 2.2 1c.9.3 1.8.6 2.7 1 .8.4 1.6.9 2.1 1.6.6.8.8 1.8.8 2.7 0 .8-.2 1.7-.7 2.4-.5.7-1.2 1.3-2 1.6-.8.4-1.7.5-2.7.6-1 0-2-.1-3-.3-.9-.2-1.8-.6-2.6-1.1v-2.9c1.4 1.1 3.2 1.9 5 1.9.8 0 1.6-.1 2.3-.5.4-.2.7-.5.8-.9.2-.5.2-1 0-1.5-.2-.4-.5-.8-.9-1-.7-.4-1.5-.7-2.3-1-.9-.3-1.9-.6-2.8-1.1-.7-.4-1.3-.9-1.7-1.6-.4-.8-.6-1.6-.6-2.5 0-.8.3-1.6.8-2.2.6-.7 1.4-1.2 2.2-1.5zM65.4 0c3.7 3.5 7.4 7.1 11.1 10.6V.3h2.6v16.5c-2.5-2.4-5-4.8-7.5-7.3C70.4 8.3 69.2 7.1 68 6v10.5h-2.6V0zM0 .3h4.2c1 0 2 0 3 .1.9.2 1.9.5 2.6 1.1.6.5 1 1.2 1.2 2 .2.8.2 1.8-.1 2.6-.3.9-.9 1.6-1.8 2 .1.1.3.1.5.2.8.4 1.4 1.1 1.8 2 .3.6.3 1.3.3 2-.1.9-.3 1.8-.9 2.4-.6.8-1.6 1.3-2.5 1.5-.8.2-1.7.2-2.6.2H.1C0 11.1 0 5.7 0 .3zm2.7 2.3V7H6c.7 0 1.4-.2 1.9-.6.4-.3.6-.9.6-1.4 0-.6-.1-1.2-.4-1.6-.4-.3-.9-.5-1.3-.6-.6-.2-1.2-.1-1.7-.2H2.7zm0 6.8v4.7h3.5c.7 0 1.3-.1 1.9-.5.5-.3.8-.8.9-1.4 0-.6 0-1.2-.4-1.8-.2-.4-.7-.7-1.1-.9-.5-.1-.9-.2-1.4-.2-1.1.1-2.3 0-3.4.1zM17.5.3h2.7v8.4c0 1 0 2 .2 2.9.2.8.6 1.5 1.2 2s1.5.7 2.3.7c.8 0 1.7-.2 2.3-.7.6-.4.9-1 1.1-1.7.2-.8.3-1.6.3-2.4V.2h2.7v9.7c0 1.3-.2 2.7-.8 3.9-.6 1-1.5 1.9-2.5 2.3-1.2.5-2.6.7-3.9.6-.9-.1-1.8-.3-2.6-.7-.6-.3-1.1-.7-1.6-1.3-.5-.6-.9-1.3-1.1-2.1-.3-.9-.4-1.8-.4-2.7.1-3.2.1-6.4.1-9.6zM54.8.3h2.7v16.2h-2.7V.3zM86.4.3h9.8v2.4h-7.1v3.9h6.4V9h-6.4v5h7.1v2.5h-9.8V3.4.3zM21.3 24.6c3.7 3.5 7.3 6.9 11 10.4V24.8h2.6V41c-3.7-3.5-7.3-7.1-11-10.6v10.3h-2.6V24.6zM44.3 25.2c1-.5 2.2-.6 3.3-.6 1.5.1 3 .5 4.3 1.3v2.8c-.6-.5-1.3-.9-2.1-1.2-1-.4-2.1-.6-3.1-.5-.5 0-1 .2-1.5.4-.3.2-.6.5-.7.9-.2.6-.1 1.4.4 1.8.4.4.9.6 1.4.8 1 .4 1.9.7 2.9 1 .8.3 1.5.6 2.1 1.2.6.5 1.1 1.2 1.3 2 .2.8.2 1.6.1 2.4-.2.8-.6 1.5-1.1 2-.6.6-1.4 1-2.2 1.2-1 .3-2 .3-3.1.3-1.1-.1-2.1-.3-3.1-.7-.4-.2-.8-.4-1.2-.7v-2.8c1.4 1.1 3.2 1.8 5 1.8.8 0 1.6-.1 2.3-.4.4-.2.7-.6.9-1 .1-.4.1-.9 0-1.4-.2-.4-.6-.8-1-1-.7-.4-1.5-.6-2.2-.9-.9-.3-1.7-.6-2.5-1-.7-.4-1.4-.9-1.8-1.6-.4-.7-.6-1.6-.6-2.4 0-.8.2-1.6.7-2.2.1-.7.8-1.2 1.5-1.5zM10.8 24.9h2.7v15.9h-2.7V24.9zM59.8 24.9h2.7v15.9h-2.7V24.9zM70.5 24.9h6.3c1.6 0 3.3.4 4.6 1.4 1.1.8 2 2 2.4 3.3.4 1.1.6 2.2.5 3.4 0 1.6-.4 3.3-1.3 4.7-.7 1.2-1.9 2.1-3.2 2.6-1 .4-2.1.6-3.2.6h-6.3c.2-5.4.2-10.7.2-16zm2.7 2.4v11.1h2.6c.5 0 1.1 0 1.6-.1 1-.1 2-.5 2.7-1.2.7-.6 1.1-1.4 1.3-2.3.2-.8.3-1.7.2-2.6-.1-.8-.2-1.6-.5-2.3-.3-.7-.8-1.3-1.4-1.8-.7-.5-1.6-.8-2.5-.9-.5-.1-1.1 0-1.6 0-.8.1-1.6.1-2.4.1zM90.2 24.9h9.7v2.4h-7v3.8h6.3v2.4h-6.3v4.9h7v2.4h-9.7V24.9zM108 24.9h6c1 0 2 .2 2.9.6.7.3 1.3.9 1.7 1.5.5.8.7 1.7.7 2.7 0 .9-.1 1.9-.6 2.7-.4.6-.9 1.1-1.6 1.4-.5.2-1 .4-1.5.4 1.9 2.2 3.8 4.4 5.8 6.6h-3.1c-1.9-2.2-3.7-4.3-5.6-6.5h-1.9v6.5h-2.7c-.1-5.3-.1-10.6-.1-15.9zm2.7 2.3v4.9h3.2c.7 0 1.5-.2 2-.7.4-.3.6-.8.7-1.3.1-.6 0-1.3-.3-1.8s-.9-.8-1.4-1c-.6-.2-1.2-.1-1.8-.1h-2.4z"/></svg>