<svg id="Layer_1" xmlns="http://www.w3.org/2000/svg" viewBox="0 0 130 17.4"><style>.st0{fill:#7b797a}</style><path class="st0" d="M6.7 5.6C8.1 7 8.2 9.2 7 10.7c-1.2 1.5-3.2 1.9-4.9 1C.9 11.1.2 10 0 8.6V8c.2-1.1.6-2.1 1.5-2.7 1.6-1.2 3.9-1.1 5.2.3zM125 5.2h1.2c-.2 1.2-.5 2.5-.7 3.7.4-.3.7-.6 1.1-.8.6-.3 1.3-.4 2-.3.6.1 1.1.4 1.3 1 .2.6 0 1.4-.1 2.1-.3 1.5-.6 3-1 4.5h-1.2c.3-1.6.6-3.1 1-4.6.1-.4.2-.9 0-1.4-.2-.3-.5-.5-.9-.5-.8-.1-1.7.3-2.2.9-.5.6-.6 1.4-.8 2.1-.2 1.2-.5 2.3-.7 3.5h-1.3c.6-2.9 1.2-5.8 1.9-8.8.1-.4.2-.9.4-1.4zM35.3 10.4c-.1-1-.5-1.9-1.3-2.4-.8-.4-1.9-.5-2.8-.3-2.4.4-4 2.9-3.9 5.2 0 1.1.6 2.3 1.7 2.6 1.5.4 3.4.2 4.5-.9 1.2-1 1.9-2.7 1.8-4.2zm-2.1.9c-.1.8-.4 1.6-.9 2.2-.5.6-1.4.7-2.1.5-.7-.3-.7-1.1-.7-1.8.1-1.1.7-2.6 2-2.8.6-.1 1.2 0 1.6.5.1.3.1.9.1 1.4zM48.9 7.7c.8 0 1.9.1 2.5.7.6.5.6 1.1.6 1.8h-2c-.1-.4-.1-.7-.6-.9-.5-.1-1.2-.2-1.6.1-.3.2-.5.7-.1.9 1 .5 2.6.5 3.5 1.3.7.7.5 1.7 0 2.4-.7 1.1-1.9 1.6-3.2 1.7-1 0-2.3 0-3-.7-.4-.4-.5-1.2-.5-1.9h2c.1.3.2.9.6 1 .6.2 1.4.2 2-.1.3-.2.6-.7.2-1-.9-.5-2.1-.5-3-1-.4-.2-.7-.5-.8-.9-.1-.7.2-1.6.7-2.1.6-.9 1.7-1.3 2.7-1.3zM25.9 8.2c.9.6.9 1.5.9 2.4h-2c0-.5-.2-.9-.6-1.1-.6-.2-1.3-.1-1.7.4-.6.5-.8 1.4-.9 2.2-.1.5-.1 1.2.2 1.7.3.5 1.1.5 1.6.3s.8-.8 1-1.2h2c-.5 1.4-1.5 2.5-3 2.9-1 .2-2.2.2-3-.4-.8-.6-1-1.7-.9-2.7.1-1.3.6-2.7 1.6-3.7 1.1-1.4 3.3-1.7 4.8-.8zM42.5 7.8c.6.1 1.2.4 1.4 1 .2.5.1 1.2 0 1.7-.3 1.7-.7 3.3-1.1 5h-2c.3-1.5.6-3.1.9-4.6.1-.4.2-1-.1-1.3-.4-.4-1.1-.3-1.6-.1-.7.3-1 1-1.2 1.8l-.9 4.2h-2c.6-2.5 1.1-5.1 1.6-7.6h1.9c-.1.3-.1.7-.2 1 .3-.2.6-.5.9-.7.7-.5 1.6-.6 2.4-.4zM59.1 7.9H61c-.5 2.5-1.1 5.1-1.6 7.6h-1.9c.1-.3.1-.7.2-1-.7.8-1.6 1.3-2.7 1.2-.9 0-1.7-.4-1.9-1.3-.2-1.2.3-2.5.5-3.7.2-.9.3-2 .7-2.9.6-.1 1.3 0 1.9 0-.3 1.6-.7 3.1-1 4.7-.1.4-.2 1 .3 1.3.6.3 1.6.1 2-.4.5-.6.7-1.6.9-2.4.3-1 .4-2.1.7-3.1zM66.1 7.9c.6-.2 1.4-.2 2 .1.4.2.6.6.8 1 .5-.5 1-.9 1.8-1.1.8-.2 1.8-.2 2.3.6.6.7.3 1.7.2 2.5-.3 1.5-.7 3.1-1 4.6h-2c.3-1.6.6-3.1 1-4.7 0-.3.1-.7 0-1-.2-.5-1-.5-1.5-.3-.6.3-.9 1.1-1 1.7-.3 1.4-.6 2.8-.9 4.3h-2c.3-1.6.7-3.1 1-4.7.1-.4.2-1-.2-1.3-.4-.2-1-.1-1.4 0-.7.3-.8 1-.9 1.6-.3 1.4-.6 2.9-.9 4.3h-2c.5-2.5 1.1-5 1.6-7.6.6-.1 1.3-.1 2 0-.1.3-.1.7-.2 1 .3-.4.7-.9 1.3-1zM81.5 12.2c.2-.9.3-1.7.1-2.6-.2-.8-.7-1.4-1.4-1.7-1.4-.5-3.1-.2-4.2.8-1.2 1-1.7 2.5-1.8 4-.1.8.1 1.7.8 2.2.9.8 2.3.9 3.4.6 1.2-.3 2.2-1.2 2.7-2.3h-1.9c-.2.3-.8.7-1.3.8-.6.1-1.3 0-1.6-.5-.2-.4-.2-1-.2-1.3 1.9 0 3.7.1 5.4 0zm-3.9-2.6c.5-.3 1.4-.3 1.8.1.3.3.3.6.3 1.2h-3.1c.2-.6.5-1 1-1.3zM85.6 7.9c-.1.4-.1.8-.2 1.2.4-.4.8-.8 1.3-1.1.5-.2 1-.2 1.5-.3-.1.7-.3 1.3-.4 2-.7 0-1.4 0-2 .4-.6.4-.7 1.2-.9 1.9-.3 1.2-.5 2.3-.7 3.5h-2c.6-2.5 1-5.1 1.6-7.6.5-.1 1.1 0 1.8 0zM91.3 7.8c.9-.1 1.9 0 2.6.7.4.5.4 1 .4 1.6h-1.2c-.1-.4-.1-.8-.5-1.1-.6-.3-1.6-.3-2.1 0s-.9 1-.3 1.5c.9.6 2.4.5 3.3 1.3.5.5.5 1.2.2 1.8-.4 1.2-1.5 1.9-2.8 2.1-.8.1-1.9.1-2.6-.4-.7-.6-.7-1.4-.7-2.2h1.2c.1.3.1.8.3 1.1.4.4 1.1.5 1.7.5.6 0 1.4-.3 1.7-.9.2-.4.3-.9-.2-1.1-1-.5-2.3-.5-3.2-1.2-.5-.4-.6-1-.4-1.6.2-1.1 1.4-1.9 2.6-2.1zM109.8 8.7c-.3-.5-1-.7-1.5-.8-1.1-.2-2.3 0-3.2.7-.6.4-.8 1.1-1.1 1.8h1.2c.3-.5.5-1 1-1.2.6-.3 1.5-.3 2.1 0 .5.3.5.9.2 1.4-.2.4-.6.4-.9.5-1 .2-2.3.2-3.2.7-.9.5-1.5 1.5-1.5 2.5.1.8.7 1.4 1.4 1.5 1.3.2 2.4-.3 3.4-1.1.1.3.1.5.3.8.4.4 1.1.4 1.5.2.2-.2.2-.6.3-.9h-.7c.2-1.6.6-3.1.9-4.7 0-.6.1-1-.2-1.4zm-2.1 5c-.6.7-1.5 1-2.4 1-.5 0-.9-.3-1-.8 0-.8.5-1.4 1.3-1.6.9-.2 1.8-.3 2.7-.5-.1.7-.2 1.3-.6 1.9zM116.1 7.9c0 .4-.1.9-.2 1.2-.5.1-1.2.1-1.6.4-.7.5-1.1 1.2-1.2 1.9-.3 1.4-.6 2.7-.9 4.1H111c.5-2.5 1-5 1.6-7.5h1.1c-.1.4-.1.8-.2 1.2.6-.8 1.4-1.4 2.6-1.3zM120.2 7.8c.8 0 1.6.2 2.1.9.4.5.3 1.3.3 1.9h-1.2c-.1-.6-.1-1.1-.7-1.4-.9-.4-2-.1-2.6.7-.7.9-1 2-1.1 3.1 0 .5.1 1.2.7 1.5.6.3 1.4.2 2-.1.6-.4.9-1 1.2-1.4h1.1c-.3.6-.5 1.2-1 1.7-.9.9-2.2 1.3-3.4 1.1-.6-.1-1.1-.4-1.4-.9-.5-.7-.5-1.6-.4-2.5.2-1.3.8-2.5 1.7-3.4.8-.8 1.7-1.2 2.7-1.2zM101.9 12.2c.2-.9.4-1.9.1-2.8-.2-.7-.9-1.2-1.6-1.4-1.1-.4-2.4 0-3.4.7-1.3 1-2 2.7-2 4.4 0 .9.4 1.8 1.2 2.3.8.5 1.9.4 2.7.2 1.3-.3 2.2-1.3 2.7-2.4h-1.2c-.4.6-.8 1.1-1.5 1.3-.6.2-1.5.3-2.1-.2-.6-.5-.5-1.5-.4-2.2 1.9 0 3.7.1 5.5.1zM98.6 9c.6-.2 1.5-.1 1.9.4.4.4.4 1 .4 1.7h-4.2c.3-.9.9-1.8 1.9-2.1zM9.6 11.2c.9-.2 2 0 2.7.6 1 .8 1.5 2.1 1.1 3.3-.4 1.4-1.7 2.4-3.2 2.4-1.6 0-3.1-1.4-3.1-3s1.1-3 2.5-3.3z"/><circle class="st0" cx="13.5" cy="5.2" r="5.2"/></svg>