<svg id="Layer_1" xmlns="http://www.w3.org/2000/svg" viewBox="0 0 130 18.7"><style>.st0{fill:#7b797a}</style><path class="st0" d="M21.3 16.4V2.2c0-.7.2-1.3.5-1.7.3-.3.8-.5 1.3-.5.6 0 1 .2 1.3.5.4.4.6 1 .6 1.7v14.2c0 .7-.2 1.3-.5 1.7-.3.4-.8.6-1.3.6s-1-.2-1.3-.6c-.4-.4-.6-.9-.6-1.7zm0 0zM120.7 3.8c-3.1 0-5.5 2.5-5.5 5.5 0 3.1 2.5 5.5 5.5 5.5 3.1 0 5.5-2.5 5.5-5.5s-2.5-5.5-5.5-5.5zm0 14.9c-5.1 0-9.3-4.2-9.3-9.3 0-5.1 4.2-9.3 9.3-9.3 5.1 0 9.3 4.2 9.3 9.3 0 5.1-4.2 9.3-9.3 9.3zM78.8 3.8c-3.1 0-5.5 2.5-5.5 5.5 0 3.1 2.5 5.5 5.5 5.5 3.1 0 5.5-2.5 5.5-5.5.1-3-2.4-5.5-5.5-5.5zm0 14.9c-5.1 0-9.3-4.2-9.3-9.3 0-5.1 4.2-9.3 9.3-9.3 5.1 0 9.3 4.2 9.3 9.3.1 5.1-4.1 9.3-9.3 9.3zM99.7 14.8h-3.9v-11h3.9c1.6.2 3 1.1 3.9 2.4.6.9 1 2 1 3.1s-.3 2.2-1 3.1c-.9 1.4-2.3 2.2-3.9 2.4zm8.7-5.5c0-2-.6-3.9-1.8-5.5C105 1.6 102.3.1 99.4 0h-.3-4.7c-.8 0-1.4.2-1.7.5-.4.4-.5 1-.5 1.8v14c0 .8.2 1.4.5 1.8.4.4.9.5 1.7.5h5c3-.1 5.6-1.6 7.2-3.8 1.1-1.5 1.8-3.4 1.8-5.5zm0 0zM64.2.1c-.7-.2-1.4.1-1.8.7l-5.6 8.6L51.2.8c-.4-.6-1.1-.9-1.8-.7-.7.2-1.1.9-1.1 1.6v15.2c0 .9.7 1.7 1.6 1.7.9 0 1.6-.7 1.6-1.7V7.1l4 6.1.1.1s0 .1.1.1l.1.1.1.1s.1 0 .1.1h.1c.2.1.3.1.5.1h.4c.2 0 .3-.1.5-.1h.1s.1 0 .1-.1c0 0 .1 0 .1-.1h.1l.1-.1s0-.1.1-.1l.1-.1 4-6.1v9.8c0 .9.7 1.7 1.6 1.7.9 0 1.6-.7 1.6-1.7V1.7c0-.8-.5-1.4-1.2-1.6zM42.7 18.1H30.6c-.6 0-1.3-.4-1.6-1-.3-.6-.3-1.5.2-2.1l9.9-11.5H31c-.9 0-1.6-.8-1.6-1.7 0-1 .7-1.5 1.6-1.5h11c.6 0 1.3.1 1.9.7.5.6.5 1.8-.1 2.6l-9.6 11.1h8.5c.9 0 1.5.8 1.5 1.7.1.9-.6 1.7-1.5 1.7zM9.3 18.7c-2.7 0-5.1-1.1-6.8-3C.9 14 0 11.7 0 9.5 0 2.6 5.8 0 9.4 0c3.6 0 6.2 1.8 6.3 1.8.8.5 1 1.6.5 2.5-.5.8-1.6 1-2.4.5 0 0-1.9-1.2-4.4-1.2C7.1 3.5 4 5.1 4 9.5 4 12 5.9 15 9.3 15c1.9 0 3.3-.5 4.1-1v-2.6h-2.7c-1 0-1.8-.8-1.8-1.8s.8-1.8 1.8-1.8h4.4c1 0 1.8.8 1.8 1.8v5.3c0 .5-.2.9-.5 1.3-1.2 1.1-3.7 2.5-7.1 2.5z"/></svg>