<svg id="Layer_1" xmlns="http://www.w3.org/2000/svg" viewBox="0 0 130 66.3"><style>.st0{fill-rule:evenodd;clip-rule:evenodd;fill:#7a7a7a}</style><path class="st0" d="M45 0c14.7 9.6 30.6 19.4 44.4 29.1H1c-.6-.6 1-1.1 1.9-1.7 6.2-4 12.7-8.5 19.2-12.7C29.7 9.6 37.8 5 45 0zM68.3 35.8c-1.7 2.9-4.2 5-6 7.7-4.9-4-14.1-3.3-15.1 3.6-.6 3.8 1.4 8 4.6 9.1 1.8.6 7.6 1.9 7.2-2.7-1.5-.6-3.9-.1-5.8-.2v-7.9h16.3V61c-12.1 10.7-35.8 4.6-34.4-13.9.7-9 7.3-15.2 16.8-16.1 7-.7 12.2 1.5 16.4 4.8zM11.3 31.5v12c3.1.5 7.1.1 10.6.2.6-3.5.1-8.1.2-12 3.3-.6 7.6-.1 11.3-.2v34.1H22.1V53.4H11.5c-.6 3.6-.1 8.2-.2 12.2H0c.2-11.3-.3-23.2.2-34.1h11.1zM104 31.5c2.4 6.1 4.4 12.8 6.7 19 2.6-6 4.6-12.6 6.7-19h12.5c-4.5 11.4-9.3 22.6-13.7 34.1h-11c-3.1-8.3-6.6-16.2-9.6-24.5h-5.5v24.5H78.8V41.1h-9.1v-9.6H104z"/></svg>