<svg id="Layer_1" xmlns="http://www.w3.org/2000/svg" viewBox="0 0 130 35.7"><style>.st0{fill:#7b797a}</style><path class="st0" d="M97.6 19.8l-.1-.2-.1-.1L103 10l.2-.3.1-.1h-3.5l-.2.3.1-.1-.1.1-3.4 5.6-1.6 2.6c-.1.1-.2.3-.2.4 0 0 0 .1-.1.1V19.6c0 .2.1.3.2.5 0 .1.1.1.1.2l5.8 10.2h3.4l-6.2-10.7zM90.6.6v30h3.1V.6h-3.1zM129.4 9.7c-.2-.1-.4-.2-.7-.2-.1 0-.1 0-.2-.1h-.4c-.4-.1-.9-.1-1.3-.1h-.3H126.2 125.9 125.6h-.1c-.1 0-.1 0-.2.1h-.1c-.1 0-.2.1-.3.1-.1 0-.3.1-.4.1-.1.1-.3.1-.4.2-.1 0-.2.1-.3.1-.1 0-.2.1-.2.2h-.1c-.1 0-.1.1-.2.1l-.2.2-.2.2s-.1 0-.1.1c-.1 0-.1.1-.2.1l-.1.1-.1.1-.2.2-.1.1-.1.1c-.1.1-.1.2-.2.2 0 0-.1.1-.1.2 0 0 0 .1-.1.1v.1l-.1.2v.1s0 .1-.1.1c0 0 0 .1-.1.1v.1c0 .1-.1.1-.1.2v.1c0 .1 0 .1-.1.2 0 .1-.1.2-.1.3 0 .2-.1.3-.1.5v16h3.1v-15c0-.9.4-1.8 1-2.4l.2-.2c.1 0 .1-.1.2-.1.4-.3.8-.5 1.2-.6h.4l3.3.1c0-.5.1-1 .1-1.6V10v-.3-.3c-.6.5-.8.4-1 .3zM116.9 15v-.3-.1-.1-.1-.2-.1-.2-.1-.1-.1-.1c0-.1 0-.2-.1-.2v-.1c0-.1 0-.1-.1-.2v-.1-.1c-.1-.1-.1-.2-.2-.3-.1-.1-.1-.2-.2-.3 0 0 0-.1-.1-.1-.1-.1-.1-.2-.2-.2v-.1c-.1-.1-.2-.2-.2-.3 0 0 0-.1-.1-.1-.1-.1-.1-.2-.2-.2l-.2-.2-.1-.1c-.1-.1-.2-.1-.2-.2h-.1c-.1-.1-.2-.1-.3-.2h-.1c-.1-.1-.2-.1-.3-.2-.1-.1-.2-.1-.3-.2-.1 0-.2-.1-.3-.1h-.1-.1c-.1 0-.2-.1-.4-.1h-.1c-.1 0-.2-.1-.3-.1h-.1c-.1 0-.3-.1-.4-.1h-1.5-.1-.1-.1-.1-.4H109.5h-.1-.1-.1s-.1 0-.1.1c0 0-.1 0-.1.1h-.1s-.1 0-.1.1c0 0-.1 0-.1.1 0 0-.1 0-.1.1l-.1.1s-.1 0-.1.1l-.1.1s-.1 0-.1.1l-.1.1-.1.1-.1.1-.1.1-.1.1-.1.1-.1.1-.1.1-.1.1-.1.1-.1.1-.1.1v.1l-.1.1s0 .1-.1.1c0 0 0 .1-.1.1 0 0 0 .1-.1.1v.1s0 .1-.1.1c0 0 0 .1-.1.1 0 0 0 .1-.1.1v.1s0 .1-.1.1V13.2s0 .1-.1.1v.1c0 .1 0 .1-.1.2v.1c0 .1 0 .1-.1.2v.1c0 .1-.1.2-.1.3 0 .1 0 .2-.1.2V26c0 .1 0 .2.1.4v.1c0 .1 0 .2.1.3v.1c0 .1.1.2.1.3v.1c0 .1.1.2.1.4.1.1.1.3.2.4 0 .1.1.2.1.3v.1c0 .1.1.1.1.2.1.1.1.2.2.3v.1c0 .1.1.1.1.2l.1.1c0 .1.1.1.1.2l.1.1.2.2c.1.1.2.1.2.2l.1.1.2.2s.1 0 .1.1c.1 0 .1.1.2.1h.1c.1.1.2.1.3.2.1.1.2.1.3.2.1 0 .2.1.2.1h.1c.1 0 .2.1.3.1.1 0 .3.1.4.1.1 0 .2 0 .4.1h.8c.3 0 .6 0 1-.1l3.7-.6v-.2-.1-.1-.2-.4-.2-.1-.8-.3-.1h-4.5c-.1 0-.2 0-.3-.1-.1 0-.2-.1-.2-.1-.1 0-.2-.1-.2-.1-.1 0-.2-.1-.2-.2-.1 0-.1-.1-.2-.1l-.2-.2-.2-.2c-.1-.1-.1-.1-.1-.2 0 0 0-.1-.1-.1 0 0 0-.1-.1-.1-.1-.1-.1-.2-.1-.3 0-.1-.1-.1-.1-.2v-.1c0-.1 0-.2-.1-.3v-.2V22.1h7.4c.4 0 .8-.2 1.1-.4.3-.3.5-.7.5-1.1v-4.7c-1.2-.7-1.2-.8-1.2-.9zm-3 .3v3.2H108v-3.2c0-1.3.9-2.5 2.1-2.9.4-.1.8-.2 1.2-.1h.4c.1 0 .2 0 .2.1.2.1.3.1.5.2h.1c.1 0 .1.1.2.1s.1.1.2.2h.1l.1.1.1.1s.1.1.1.2c.1.1.1.2.2.3 0 .1.1.1.1.2v.1c0 .1.1.1.1.2v.9c.1.1.2.2.2.3zm-29.6.5h2.8v-.4-.2-.2-.2-.1-.1V14.3v-.1-.1-.1-.1-.1-.1-.1-.1s0-.1-.1-.1v-.1c-.1-.1-.1-.2-.2-.3-.1-.1-.1-.2-.2-.3v-.1c-.1-.1-.1-.2-.2-.3-.1-.1-.2-.2-.2-.3l-.1-.1c-.1-.1-.1-.2-.2-.2l-.3-.3-.1-.1c-.1-.1-.2-.1-.3-.2-.1-.1-.2-.2-.4-.3-.1-.1-.2-.1-.3-.2h-.1c-.1-.1-.2-.1-.3-.2-.1 0-.2-.1-.2-.1h-.1-.1c-.1 0-.2-.1-.4-.1-.1 0-.2-.1-.3-.1h-.1c-.1 0-.2 0-.4-.1h-1.1H81.1 81h-.1-.1-.1-.1H80.3h-.1-.1-.2-.1-.1-.1-.1-.1c-.1 0-.1 0-.2.1h-.1c-.1 0-.1.1-.2.1l-.1.1s-.1 0-.1.1c-.1 0-.1.1-.2.1l-.1.1-.1.1-.1.1-.1.1-.1.1-1-.2-.1.1-.1.1-.1.1c0 .1-.1.1-.1.2-.1.1-.1.2-.2.2 0 0 0 .1-.1.1 0 .1-.1.1-.1.2 0 0 0 .1-.1.1 0 .1-.1.1-.1.2v.1c0 .1-.1.1-.1.2v.2c-.1.1-.1.2-.1.3v.1c0 .1-.1.2-.1.2v.1c0 .1-.1.2-.1.2v.1c0 .1-.1.2-.1.3-.1.5-.2 1-.2 1.5V26c0 .1 0 .2.1.3v.1c.1.2.1.4.2.6v.1c0 .1.1.2.1.3v.1c0 .1.1.2.2.3 0 .1.1.2.2.3.1.1.1.2.2.3v.1l.3.3.2.2s0 .1.1.1c.1.1.2.2.3.2.1.1.2.2.3.2 0 0 .1 0 .1.1l.2.2c.1.1.3.2.4.3.1.1.2.1.3.1 0 0 .1 0 .1.1.1 0 .2.1.2.1h.1c.1 0 .2.1.3.1h.1c.1 0 .2.1.3.1h.1c.1 0 .2.1.3.1h.1c.1 0 .2 0 .4.1H83.5s.1 0 .1-.1h.1s.1 0 .1-.1l.1-.1.1-.1s.1 0 .1-.1c0 0 .1 0 .1-.1l.1-.1.1-.1s.1 0 .1-.1l.1-.1s.1 0 .1-.1l.1-.1s.1 0 .1-.1l.1-.1s.1 0 .1-.1l.1-.1.1-.1.1-.1.1-.1.1-.1s0-.1.1-.1l.1-.1s0-.1.1-.1c0 0 .1-.1.1-.2l.1-.1c0-.1.1-.1.1-.2v-.1c.1-.1.1-.2.1-.2.1-.2.2-.4.3-.5 0-.1.1-.1.1-.2v-.1c0-.1 0-.1.1-.2v-.1c0-.1 0-.1.1-.2v-.1-.2-.1-.2-.1V25.4v-.1-.3-.1c-.1 0-.6 0-1.4-.1-.3 0-.5 0-.8-.1-.3 0-.5 0-.8-.1V24.9c0 .2-.1.4-.1.6-.4 1.2-1.5 2-2.8 2h-.7c-.1 0-.2 0-.2-.1H80c-.1 0-.2-.1-.2-.1-.1 0-.1-.1-.2-.1s-.1-.1-.2-.1l-.2-.2-.2-.2-.2-.2-.2-.2-.1-.1s0-.1-.1-.1c0-.1-.1-.2-.1-.2 0-.1-.1-.2-.1-.3 0-.1 0-.2-.1-.3V25v-.1V15c0-.9.4-1.7 1.1-2.3.6-.5 1.4-.7 2.1-.7h.4c.1 0 .1 0 .2.1.3.1.5.2.7.4.1 0 .1.1.2.2l.3.3v.1l.2.2c0 .1.1.1.1.2v.1c0 .1.1.1.1.2v1.7c.6.3.7.3.8.3zM71 15.5v-.2V15v-.1-.2-.1-.1-.1-.1-.1-.1-.2-.2-.1-.1-.1 0l-.1-.2v-.1s0-.1-.1-.1c0 0 0-.1-.1-.1 0-.1-.1-.2-.1-.3v-.1c-.1-.1-.1-.2-.2-.3-.1-.1-.1-.2-.2-.3-.1-.1-.1-.2-.2-.3l-.3-.3c-.6-.2-.7-.3-.7-.4l-.1-.1c-.1-.1-.2-.2-.3-.2h-.1c-.1-.1-.2-.1-.2-.2-.1-.1-.3-.2-.4-.3-.2-.1-.5-.3-.7-.4-.1-.1-.3-.1-.4-.2h-.1-.1c-.1 0-.1 0-.2-.1h-.1-.1c-.1 0-.2 0-.3-.1-.2 0-.3 0-.5-.1H65.1 64.8c-.3 0-.7 0-1 .1-.2 0-.3.1-.5.1-.1 0-.3.1-.4.1h-.1c-.2.1-.5.1-.7.2-.1 0-.2.1-.3.1-.1 0-.2.1-.3.1h-.1-.1-.1V12.5h1.2l1.1-.1H66.7c.1 0 .2 0 .2.1h.1c.1 0 .1.1.2.1s.1.1.2.1h.1c.1 0 .1.1.2.1s.1.1.2.1c.1.1.1.1.1.2s.1.1.1.2v.1c0 .1.1.1.1.2 0 0 0 .1.1.2.1.2.1.4.2.6v3.3h-.1-.1-.1-.1-.1-.1-.1-.1-.1-.1-.1-.2-.1-.1-.1-.2-.5H65.9 65.3 65 64.7h-.1-.1-.1-.2-.1-.2-.1-.1-.1-.1-.1-.1c-.1 0-.1 0-.2.1H63s-.1 0-.1.1h-.1s-.1 0-.1.1H62.4s-.1 0-.1.1h-.2s-.1 0-.1.1l-.5-.2h-.1c-.1 0-.1.1-.2.1h-.1l-.1.1-.1.1-.1.1-.1.1-.1.1-.1.1-.1.1v.2l-.1.1-.2.2-.1.1v.1l-.1.1v.1l-.1.1v.1s0 .1-.1.1v.1c0 .1-.1.1-.1.2s-.1.2-.1.3V25.6c0 .1 0 .2.1.3 0 .1.1.2.1.3v.1c0 .1.1.1.1.2v.1c0 .1.1.1.1.2v.1c0 .1.1.2.1.3.1.1.1.2.2.3 0 0 0 .1.1.1 0 .1.1.1.1.2 0 0 0 .1.1.1.1.1.1.2.2.3l.1.1.2.2.1.1.2.2.1.1.3.3.2.2s.1 0 .1.1c.1.1.2.1.3.2.1.1.2.1.3.2h.1c.1 0 .2.1.3.1h.1c.1 0 .2.1.3.1h.1c.1 0 .2.1.3.1h.1c.1 0 .2.1.3.1.1 0 .2 0 .4.1h.5c1.4.1 2.7-.3 3.8-1.1.8-.5 1.4-1.3 1.8-2.1.5-.9.7-1.9.7-2.9v-9.2c-.4.5-.4.5-.4.4zm-8.5 10.9s0-.1-.1-.1v-.1c0-.1-.1-.2-.1-.2v-.1c0-.1 0-.1-.1-.2v-.1c0-.1 0-.2-.1-.3V25v-2.5c0-.8.3-1.5.9-2.1.6-.6 1.3-.9 2.1-.9h3v5.2c0 .3-.1.7-.2 1-.4 1.1-1.3 1.9-2.5 2H64.5c-.1 0-.2 0-.2-.1-.1 0-.2-.1-.3-.1-.1 0-.1-.1-.2-.1s-.1-.1-.2-.1-.1-.1-.2-.1c-.4-.1-.4-.2-.5-.3-.1-.1-.1-.1-.1-.2-.1-.1-.1-.1-.1-.2-.2 0-.2 0-.2-.1zm-7.3-10.9v-.3-.1-.2-.1-.2-.1-.2-.1-.2-.1c0-.1-.1-.2-.1-.3 0-.1-.1-.2-.1-.2v-.1c0-.1-.1-.1-.1-.2V13c-.1-.1-.1-.2-.2-.4 0-.1-.1-.2-.1-.3v-.1s0-.1-.1-.1V12s0-.1-.1-.1c-.1-.1-.1-.2-.2-.3-.1-.1-.2-.2-.2-.3l-.2-.2h-.1c-.1-.1-.2-.2-.3-.2l-.1-.1c-.1-.1-.2-.1-.2-.2l-.1-.1c-.1-.1-.2-.1-.3-.2-.7-.3-.8-.4-.9-.4h-.1c-.1-.1-.2-.1-.3-.1-.1 0-.2-.1-.4-.1-.1 0-.2-.1-.3-.1-.1 0-.2-.1-.4-.1h-.8-1.2.1-.4-.1H47.6h-.1H47.2c-.1 0-.2 0-.3.1-.1 0-.1 0-.2.1V.5h-3.1v30.1h3.1v-18H50.1c.1 0 .2 0 .3.1h.1c.1 0 .2.1.2.1h.1c.1 0 .1 0 .2.1h.1c.1 0 .1.1.2.1h.1c.1 0 .1.1.2.1h.1l.1.1.1.1.1.1v.1l.2.2c0 .1.1.1.1.2v.1c0 .1.1.1.1.2v16.2h3l-.2-14.9c0 .1 0 0 0 0zm-15.6-.3v-.3-.1-.2-.1-.2-.1-.4-.2-.1c0-.1 0-.1-.1-.2 0-.1-.1-.2-.1-.3 0 0 0-.1-.1-.1 0-.1 0-.1-.1-.2v-.2-.1c0-.1-.1-.1-.1-.2s-.1-.2-.2-.3c0-.1-.1-.1-.1-.2v-.1s0-.1-.1-.1c-.1-.1-.2-.2-.3-.4V11c0-.1-.1-.1-.1-.2l-.1-.1-.1-.1-.2-.2-.1-.1-.1-.1c-.1 0-.1-.1-.2-.1l-.1-.1c-.1 0-.1-.1-.2-.1h-.1c-.1 0-.1-.1-.2-.1s-.1-.1-.2-.1h-.1-.1l-.5-.3h-.1c-.1 0-.1-.1-.2-.1s-.2-.1-.2-.1h-.1c-.2-.1-.3-.2-.4-.2h-.1c-.1 0-.2 0-.2-.1H34.4c-.2 0-.3-.1-.5-.1h-.4-.5-.4H32.3h-.4-.1-.1c-.1 0-.1 0-.2.1h-.1-.4-.1s-.1 0-.1.1h-.1c-.1 0-.1.1-.2.1h-.1s-.1 0-.1.1c0 0-.1 0-.1.1h-.1s-.1 0-.1.1l-.1.1h-.1s-.1 0-.1.1c0 0-.1 0-.1.1h-.1l-.1.1c-.1 0-.1.1-.2.1l-.2.2-.1.1-.1.1-.1.1-.2.2v.1c0 .1-.1.1-.1.2l-.1.1c-.1.1-.1.2-.2.3v.1s0 .1-.1.1c0 .1-.1.2-.1.2v.1c0 .1-.1.1-.1.2s-.1.1-.1.2c-.1.1-.1.3-.2.4v.1c0 .1-.1.3-.1.4-.1.5-.2 1.1-.2 1.6v10c0 .1 0 .3.1.4v.1c0 .1 0 .2.1.3v.1c0 .2.1.3.1.4 0 .1.1.2.1.3v.1c0 .1.1.2.1.3 0 .1.1.2.2.3v.1c0 .1.1.1.1.2 0 0 0 .1.1.1.1.1.1.2.2.3.1.1.1.2.2.3l.1.1.2.2.1.1.2.2.1.1c.1.1.2.2.3.2l.1.1.2.2s.1 0 .1.1c.1 0 .1.1.2.1.1.1.3.2.4.2.1.1.2.1.3.1l.1.1c.1 0 .1.1.2.1h.1c.1 0 .2.1.2.1h.1c.1 0 .2.1.3.1H33.4c.2 0 .3 0 .5-.1l4-.6h.3l-.1-2.4v-1.8h-5.3H32.5h-.1-.1c-.1 0-.1 0-.2-.1-.1 0-.1-.1-.2-.1h-.1l-.1-.1h-.1l-.1-.1s-.1-.1-.1-.2l-.1-.1v-.1-.1V24v-.2V21.5h6c1.3 0 2.4-1 2.4-2.4l-.1-3.9zm-8.4 2.3v-2.2c0-1 .8-1.8 1.8-1.8h.6s.1 0 .1.1h.2l.1.1s.1 0 .1.1l.1.1.1.1.1.1.1.1s0 .1.1.1V17.2h-3.4v.3zM24.5.8V.5s-.1 0-.1-.1h-.1-.1-.1-.1-.1-.1-.1-.1-.1-.1H23.1 23h-.7H21.7h-.1c-.1 0-.1 0-.2.1h-.1c-.1 0-.2.1-.3.1h-.1c-.1 0-.1 0-.2.1h-.1c-.1 0-.1 0-.2.1h-.1c-.1 0-.2.1-.2.1H20c-.1.1-.2.1-.3.2l-.8-.1h-.1l-.1.1s-.1 0-.1.1c-.1.1-.2.1-.3.2h-.1l-.1.1-.1.1h-.1l-.2.2h-.1l-.1.1-.1.1-.1.1-.2.2s0 .1-.1.1c0 .1-.1.1-.1.2l-.1.1v.1c0 .1-.1.1-.1.2v.1c-.1.1-.1.2-.2.3-.1.1-.1.2-.2.3v.1c0 .1-.1.2-.1.2v.2c0 .1-.1.2-.1.2v.4c0 .1-.1.2-.1.3v.2c0 .1-.1.2-.1.4 0 .1 0 .2-.1.3v29.7h.2l4.6-.3V18.1H24v-4.8h-3.6V6.9c0-1 .8-1.8 1.8-1.8h2.2l.1-4.3V.5v.3zM4.8 1L.2.7H0v29.9h4.8V1zM12.9 4.9s0-.1 0 0v-.3-.1-.1-.1-.1V4c0-.1 0-.1-.1-.2v-.1s0-.1-.1-.1v-.1c0-.1-.1-.1-.1-.2l-.1-.1-.1-.1s-.1 0-.1-.1c0 0-.1 0-.1-.1 0 0-.1 0-.1-.1 0 0-.1 0-.1-.1-.1 0-.1-.1-.2-.1h-.1c-.1 0-.1 0-.2-.1h-.1c-.1 0-.1 0-.2-.1h-.1-.1-.1H10.3 10h-.1-.1-.1-.1-.1l-.5.3c-.1 0-.1.1-.2.1 0 0-.1 0-.1.1 0 0-.1 0-.1.1h-.1l-.1.1-.1.1-.1.1-.1.1-.1.1V3.8s0 .1-.1.1c0 0 0 .1-.1.1V5.6c0 .1 0 .2.1.2v.1c0 .1 0 .1.1.2 0 .1.1.2.1.3v.1s0 .1.1.1c-.2.2-.1.2-.1.3.1.1.1.1.1.2l.2.2c.1 0 .1.1.2.1.2.1.4.2.5.3.1 0 .1.1.2.1s.2 0 .2.1h1.3c.1 0 .1 0 .2-.1h.1s.1 0 .1-.1c0 0 .1 0 .1-.1l.1-.1s.1 0 .1-.1l.1-.1s.1 0 .1-.1l.1-.1.1-.1.2-.2c.1-.1.2-.2.2-.3 0 0 0-.1.1-.1 0-.1.1-.2.1-.2v-.1V6v-.1-.1-.1-.1-.1-.2c.4-.2.4-.3.4-.4zM7.8 9v21.6h4.8V9.3L7.8 9z"/></svg>