<svg id="Work" xmlns="http://www.w3.org/2000/svg" viewBox="0 0 242.61 78.1"><defs><style>.cls-1{fill:#8dc8c9;}.cls-2{fill:#1c9294;}.cls-3{fill:#f5f4f4;}.cls-4{fill:#facbb9;}.cls-5{fill:#f48257;}</style></defs><title>3-of-4-2</title><rect class="cls-1" x="-0.19" y="4.84" width="38.05" height="66.88"/><rect class="cls-2" x="2.71" y="8.35" width="32.24" height="63.38"/><circle class="cls-3" cx="9.9" cy="39.32" r="3.25"/><rect class="cls-4" x="68.08" y="4.84" width="38.05" height="66.88"/><polygon class="cls-5" points="103.22 71.72 81.16 77.72 81.16 0.34 103.22 8.35 103.22 71.72"/><rect class="cls-3" x="70.98" y="8.35" width="10.18" height="63.38"/><circle class="cls-3" cx="87.61" cy="39.32" r="3.25"/><rect class="cls-4" x="136.35" y="4.84" width="38.05" height="66.88"/><polygon class="cls-5" points="171.49 71.72 149.43 77.72 149.43 0.34 171.49 8.35 171.49 71.72"/><rect class="cls-3" x="139.25" y="8.35" width="10.18" height="63.38"/><circle class="cls-3" cx="155.88" cy="39.32" r="3.25"/><rect class="cls-4" x="204.61" y="4.84" width="38.05" height="66.88"/><polygon class="cls-5" points="239.75 71.72 217.69 77.72 217.69 0.34 239.75 8.35 239.75 71.72"/><rect class="cls-3" x="207.52" y="8.35" width="10.18" height="63.38"/><circle class="cls-3" cx="224.14" cy="39.32" r="3.25"/></svg>