<svg id="Work" xmlns="http://www.w3.org/2000/svg" viewBox="0 0 143.12 145.38"><defs><style>.cls-1{fill:#d0cfcf;}.cls-2{fill:#f48257;}</style></defs><title>decline-1</title><rect class="cls-1" y="131.86" width="39.46" height="13.52" rx="6.76" ry="6.76"/><polygon class="cls-2" points="143.12 0 113.36 0 104.96 0 104.96 8.41 104.96 29.78 83.58 29.78 75.18 29.78 75.18 38.19 75.18 59.51 53.85 59.51 45.45 59.51 45.45 67.92 45.45 89.29 24.07 89.29 15.67 89.29 15.67 97.7 15.67 120.14 8.48 120.14 19.87 135.99 31.26 120.14 24.07 120.14 24.07 97.7 53.83 97.67 53.85 67.92 75.18 67.92 75.18 67.94 83.58 67.92 83.61 59.51 83.58 59.51 83.58 38.19 113.34 38.19 113.36 8.41 143.12 8.41 143.12 0"/></svg>