<svg id="Work" xmlns="http://www.w3.org/2000/svg" xmlns:xlink="http://www.w3.org/1999/xlink" viewBox="0 0 385 99.14"><defs><style>.cls-1{fill:none;}.cls-2{clip-path:url(#clip-path);}.cls-3{fill:#f7ac90;}.cls-4{fill:#f48257;}.cls-5{fill:#1c666a;}</style><clipPath id="clip-path"><rect class="cls-1" y="-5" width="385" height="147.58"/></clipPath></defs><title>decrease-1</title><g class="cls-2"><rect class="cls-3" x="-10.09" y="36.02" width="415.92" height="25.5" transform="translate(-5.48 35.3) rotate(-10.06)"/><polygon class="cls-4" points="192.07 36.85 262.92 50.25 283.63 46.52 213.19 33.11 192.07 36.85"/><polygon class="cls-4" points="99.97 53.16 170.81 66.56 191.52 62.83 121.08 49.43 99.97 53.16"/><polygon class="cls-5" points="1.73 96.5 -19.44 100.25 1.22 70.69 22.39 66.94 1.73 96.5"/><polygon class="cls-5" points="44.07 88.99 22.9 92.74 43.55 63.18 64.72 59.43 44.07 88.99"/><polygon class="cls-5" points="86.41 81.48 65.24 85.23 85.89 55.67 107.06 51.92 86.41 81.48"/><polygon class="cls-5" points="128.75 73.97 107.58 77.73 128.23 48.17 149.4 44.41 128.75 73.97"/><polygon class="cls-5" points="171.09 66.47 149.92 70.22 170.57 40.66 191.74 36.9 171.09 66.47"/><polygon class="cls-5" points="213.43 58.96 192.26 62.71 212.91 33.15 234.08 29.4 213.43 58.96"/><polygon class="cls-5" points="255.77 51.45 234.6 55.2 255.25 25.64 276.42 21.89 255.77 51.45"/><polygon class="cls-5" points="298.11 43.94 276.94 47.7 297.59 18.14 318.76 14.38 298.11 43.94"/><polygon class="cls-5" points="340.44 36.43 319.27 40.19 339.93 10.63 361.1 6.87 340.44 36.43"/><polygon class="cls-5" points="382.79 28.93 361.62 32.68 382.27 3.12 403.44 -0.63 382.79 28.93"/><rect class="cls-3" x="-10.12" y="38.31" width="417.52" height="25.5" transform="translate(12.89 -35.89) rotate(10.67)"/><polygon class="cls-5" points="-2.48 26.15 -23.61 22.17 6.17 1.83 27.3 5.81 -2.48 26.15"/><polygon class="cls-5" points="39.78 34.11 18.65 30.13 48.43 9.79 69.56 13.77 39.78 34.11"/><polygon class="cls-5" points="82.03 42.07 60.9 38.09 90.68 17.75 111.81 21.73 82.03 42.07"/><polygon class="cls-5" points="124.29 50.03 103.16 46.05 132.94 25.71 154.07 29.69 124.29 50.03"/><polygon class="cls-5" points="166.55 57.99 145.42 54.01 175.2 33.67 196.33 37.65 166.55 57.99"/><polygon class="cls-5" points="208.8 65.95 187.67 61.97 217.45 41.63 238.58 45.61 208.8 65.95"/><polygon class="cls-5" points="251.06 73.91 229.93 69.93 259.71 49.59 280.84 53.57 251.06 73.91"/><polygon class="cls-5" points="293.32 81.87 272.19 77.89 301.97 57.55 323.1 61.53 293.32 81.87"/><polygon class="cls-5" points="335.57 89.83 314.44 85.85 344.22 65.51 365.35 69.49 335.57 89.83"/><polygon class="cls-5" points="377.83 97.79 356.7 93.81 386.48 73.47 407.61 77.45 377.83 97.79"/></g></svg>