<svg id="Work" xmlns="http://www.w3.org/2000/svg" viewBox="0 0 160.77 87.25"><defs><style>.cls-1{fill:#f48257;}.cls-2{fill:#f16632;}.cls-3{fill:#1c666a;}.cls-4{fill:#1c9294;}.cls-5{fill:#4eaaac;}.cls-6{fill:#6bb8b9;}.cls-7{fill:#a2d2d3;}.cls-8{fill:#f7ac90;}</style></defs><title>dollar-2</title><polygon class="cls-1" points="106.8 16.74 76.88 16.74 57.05 0.08 86.97 0.08 106.8 16.74"/><rect class="cls-2" x="76.88" y="21.53" width="29.92" height="65.71"/><rect class="cls-3" x="16.98" y="21.76" width="143.82" height="61.99"/><path class="cls-4" d="M33.86,21.76H17V38.64A16.88,16.88,0,0,0,33.86,21.76Z"/><path class="cls-4" d="M17,66.86V83.75H33.86A16.89,16.89,0,0,0,17,66.86Z"/><path class="cls-4" d="M160.8,38.64V21.76H143.92A16.88,16.88,0,0,0,160.8,38.64Z"/><path class="cls-4" d="M160.8,66.86a16.89,16.89,0,0,0-16.88,16.89H160.8Z"/><rect class="cls-4" x="8.53" y="13.31" width="143.82" height="61.99"/><path class="cls-5" d="M25.42,13.31H8.53V30.2A16.89,16.89,0,0,0,25.42,13.31Z"/><path class="cls-5" d="M8.53,58.42V75.31H25.42A16.89,16.89,0,0,0,8.53,58.42Z"/><path class="cls-5" d="M152.36,30.2V13.31H135.48A16.88,16.88,0,0,0,152.36,30.2Z"/><path class="cls-5" d="M152.36,58.42a16.88,16.88,0,0,0-16.88,16.89h16.88Z"/><rect class="cls-6" x="0.09" y="4.87" width="143.82" height="61.99"/><path class="cls-7" d="M17,4.87H.09V21.76A16.89,16.89,0,0,0,17,4.87Z"/><path class="cls-7" d="M.09,50V66.86H17A16.89,16.89,0,0,0,.09,50Z"/><path class="cls-7" d="M143.92,21.76V4.87H127A16.88,16.88,0,0,0,143.92,21.76Z"/><path class="cls-7" d="M143.92,50A16.88,16.88,0,0,0,127,66.86h16.88Z"/><path class="cls-7" d="M29.62,40.81a1.36,1.36,0,0,0-.54-1.13,7.43,7.43,0,0,0-1.62-1l-2.18-.86-1.07-.42a11.89,11.89,0,0,1-4.47-2.69,5.24,5.24,0,0,1-1.31-3.61,4.69,4.69,0,0,1,1.81-3.8,9.16,9.16,0,0,1,5-1.8V23.11h2.18v2.37A18.14,18.14,0,0,1,34.05,27l-1.5,3.72a17.16,17.16,0,0,0-5.09-1.24,10.31,10.31,0,0,0-2.18.06c-1.37.21-2.06.76-2.06,1.66a1.51,1.51,0,0,0,.49,1.15,5.59,5.59,0,0,0,1.57.94l2.18.89a23.82,23.82,0,0,1,4.42,2.07,6,6,0,0,1,1.92,1.92,4.77,4.77,0,0,1,.62,2.45,5,5,0,0,1-1.83,4.07,9.07,9.07,0,0,1-5.13,1.84v3.27H25.28V46.54a17.7,17.7,0,0,1-6.82-1.36V41a18.3,18.3,0,0,0,3.34,1.21,17.58,17.58,0,0,0,3.48.62S29.5,43.09,29.62,40.81Z"/><path class="cls-7" d="M120.59,40.81a1.36,1.36,0,0,0-.54-1.13,7.43,7.43,0,0,0-1.62-1l-2.18-.86-1.07-.42a11.76,11.76,0,0,1-4.46-2.69,5.2,5.2,0,0,1-1.32-3.61,4.69,4.69,0,0,1,1.81-3.8,9.16,9.16,0,0,1,5-1.8V23.11h2.18v2.37A18.14,18.14,0,0,1,125,27l-1.5,3.72a17.16,17.16,0,0,0-5.09-1.24,10.31,10.31,0,0,0-2.18.06c-1.37.21-2.06.76-2.06,1.66a1.51,1.51,0,0,0,.49,1.15,5.59,5.59,0,0,0,1.57.94l2.18.89a23.82,23.82,0,0,1,4.42,2.07,5.94,5.94,0,0,1,1.92,1.92,4.77,4.77,0,0,1,.62,2.45,5,5,0,0,1-1.83,4.07,9.07,9.07,0,0,1-5.13,1.84v3.27h-2.18V46.54a17.7,17.7,0,0,1-6.82-1.36V41a18.3,18.3,0,0,0,3.34,1.21,17.58,17.58,0,0,0,3.48.62S120.47,43.09,120.59,40.81Z"/><rect class="cls-8" x="57.05" y="0.08" width="29.92" height="70.5"/><polygon class="cls-1" points="106.8 87.24 76.88 87.24 57.05 70.59 86.97 70.59 106.8 87.24"/></svg>