<svg id="Work" xmlns="http://www.w3.org/2000/svg" viewBox="0 0 178.11 114.13"><defs><style>.cls-1{fill:#f7ac90;}.cls-2{fill:#f48257;}.cls-3{fill:#1c9294;}.cls-4{fill:#1c666a;}.cls-5{fill:#8dc8c9;}.cls-6{fill:#f5f4f4;}</style></defs><title>household-members-1</title><path class="cls-1" d="M178.45,90.6a42,42,0,0,0-84,0V114h84Z"/><path class="cls-2" d="M136.46,48.61A41.71,41.71,0,0,0,114,55.15l56.72,53.93h7.76V90.6A42,42,0,0,0,136.46,48.61Z"/><circle class="cls-3" cx="136.46" cy="26.98" r="13.87"/><rect class="cls-3" x="94.46" y="88.48" width="14.66" height="25.52"/><rect class="cls-3" x="163.79" y="88.48" width="14.66" height="25.52"/><path class="cls-4" d="M163.79,88.48v14l12,11.61,2.7-.13V90.6c0-.71,0-1.41,0-2.12Z"/><rect class="cls-5" y="8.77" width="74.09" height="105.36" transform="translate(74.09 122.91) rotate(180)"/><polygon class="cls-3" points="5.65 114.13 48.61 114.13 48.61 0 5.65 15.6 5.65 114.13"/><rect class="cls-4" x="48.61" y="15.6" width="19.82" height="98.53" transform="translate(117.05 129.73) rotate(180)"/><circle class="cls-6" cx="37.89" cy="75.91" r="4.48"/></svg>