<svg id="Work" xmlns="http://www.w3.org/2000/svg" viewBox="0 0 168.7 109.69"><defs><style>.cls-1{fill:#d0cfcf;}.cls-2{fill:#1c666a;}.cls-3{fill:#1c9294;}.cls-4{fill:#f5f4f4;}.cls-5{fill:#6bb8b9;}</style></defs><title>property-losses-1</title><rect class="cls-1" x="8.2" y="97.7" width="147.99" height="11.99" rx="5.99" ry="5.99"/><path class="cls-2" d="M51.43,59.16,35.34,34.21l13-13H7.57l13,13-16.09,25a27.94,27.94,0,1,0,47,0Z"/><path class="cls-2" d="M164.24,59.16,148.16,34.21l13-13H120.39l13,13-16.09,25a27.94,27.94,0,1,0,47,0Z"/><path class="cls-3" d="M35.34,34.21l13-13H7.57l13,13-.31.47L55.55,70a28,28,0,0,0-4.12-10.82Z"/><rect class="cls-4" x="17.23" y="32.51" width="21.45" height="3.37"/><path class="cls-3" d="M111.88,47.86,91.59,16.37,108,0H56.53L72.89,16.36l-20.3,31.5a35.27,35.27,0,1,0,59.29,0Z"/><path class="cls-3" d="M164.24,59.16,148.16,34.21l13-13H120.39l13,13-16.09,25c-.16.25-.31.52-.46.78a35.2,35.2,0,0,1-.47,16l26.19,26.19a27.94,27.94,0,0,0,21.72-43Z"/><path class="cls-5" d="M116.8,59.94a35.19,35.19,0,0,0-4.92-12.08L91.59,16.37,108,0H56.53L72.89,16.36l-6.34,9.85,46.33,46.33L116.33,76A35.2,35.2,0,0,0,116.8,59.94Z"/><rect class="cls-4" x="68.72" y="14.23" width="27.07" height="4.25"/><path class="cls-4" d="M87.16,67.38a2,2,0,0,0-.81-1.7,10.66,10.66,0,0,0-2.44-1.43L80.64,63,79,62.34a18,18,0,0,1-6.7-4.05,7.8,7.8,0,0,1-2-5.41,7.06,7.06,0,0,1,2.71-5.7,13.8,13.8,0,0,1,7.56-2.71V40.82h3.27v3.56a27.26,27.26,0,0,1,9.89,2.19l-2.24,5.59a25.79,25.79,0,0,0-7.65-1.86,15.12,15.12,0,0,0-3.27.1c-2,.3-3.08,1.13-3.08,2.48a2.24,2.24,0,0,0,.73,1.73A8.73,8.73,0,0,0,80.64,56l3.27,1.34a36,36,0,0,1,6.63,3.1,9.12,9.12,0,0,1,2.89,2.89A7.21,7.21,0,0,1,94.35,67a7.58,7.58,0,0,1-2.75,6.1,13.59,13.59,0,0,1-7.69,2.76v4.89H80.64V76a26.38,26.38,0,0,1-10.22-2V67.61a27.27,27.27,0,0,0,5,1.82,26,26,0,0,0,5.22.93S87,70.79,87.16,67.38Z"/><path class="cls-4" d="M31,73.09A1.28,1.28,0,0,0,30.51,72a6.48,6.48,0,0,0-1.57-.92l-2.1-.83-1-.4a11.41,11.41,0,0,1-4.31-2.61,5,5,0,0,1-1.27-3.48A4.53,4.53,0,0,1,22,60.1a8.9,8.9,0,0,1,4.87-1.75V56h2.1v2.29A17.34,17.34,0,0,1,35.3,59.7l-1.44,3.6a16.41,16.41,0,0,0-4.92-1.2,10.4,10.4,0,0,0-2.1.06c-1.33.2-2,.73-2,1.6a1.46,1.46,0,0,0,.47,1.11,5.17,5.17,0,0,0,1.52.9l2.1.86a24.16,24.16,0,0,1,4.27,2,6.08,6.08,0,0,1,1.86,1.86,4.68,4.68,0,0,1,.59,2.37,4.84,4.84,0,0,1-1.77,3.92,8.75,8.75,0,0,1-4.95,1.78v3.15h-2.1V78.62a17.05,17.05,0,0,1-6.58-1.32V73.24a17.71,17.71,0,0,0,3.22,1.17,16.86,16.86,0,0,0,3.36.6S30.91,75.28,31,73.09Z"/><path class="cls-4" d="M143.86,73.09a1.32,1.32,0,0,0-.53-1.09,6.59,6.59,0,0,0-1.56-.92l-2.11-.83-1-.4a11.49,11.49,0,0,1-4.31-2.61,5,5,0,0,1-1.27-3.48,4.51,4.51,0,0,1,1.75-3.66,8.87,8.87,0,0,1,4.86-1.75V56h2.11v2.29a17.44,17.44,0,0,1,6.36,1.41l-1.45,3.6a16.27,16.27,0,0,0-4.91-1.2,10.49,10.49,0,0,0-2.11.06c-1.32.2-2,.73-2,1.6a1.42,1.42,0,0,0,.47,1.11,5.09,5.09,0,0,0,1.51.9l2.11.86a24,24,0,0,1,4.26,2,6,6,0,0,1,1.86,1.86,4.68,4.68,0,0,1,.59,2.37,4.84,4.84,0,0,1-1.77,3.92,8.69,8.69,0,0,1-4.94,1.78v3.15h-2.11V78.62a17.09,17.09,0,0,1-6.58-1.32V73.24a18,18,0,0,0,3.22,1.17,17.11,17.11,0,0,0,3.36.6S143.73,75.28,143.86,73.09Z"/><rect class="cls-4" x="130.04" y="32.51" width="21.45" height="3.37"/></svg>