<svg id="Work" xmlns="http://www.w3.org/2000/svg" xmlns:xlink="http://www.w3.org/1999/xlink" viewBox="0 0 245.85 144.37"><defs><style>.cls-1{fill:none;}.cls-2{clip-path:url(#clip-path);}.cls-3{fill:#1c9294;}.cls-4{fill:#f7ac90;}.cls-5{fill:#fce3da;}.cls-6{fill:#f48257;}.cls-7{fill:#facbb9;}.cls-8{fill:#f69876;}</style><clipPath id="clip-path"><rect class="cls-1" x="-24.96" y="-44.96" width="291.17" height="189.33"/></clipPath></defs><title>residential-1</title><g class="cls-2"><circle class="cls-3" cx="228.33" cy="144.37" r="16.71"/><circle class="cls-3" cx="219.58" cy="123.52" r="11.78"/><polygon class="cls-4" points="182.45 15.36 94.48 15.36 131.43 52.31 145.51 52.31 145.51 144.38 219.4 144.38 219.4 52.31 182.45 15.36"/><rect class="cls-5" x="57.54" y="52.31" width="87.97" height="92.07"/><rect class="cls-6" x="88.43" y="80.76" width="26.2" height="33.4" transform="translate(203.06 194.92) rotate(-180)"/><rect class="cls-7" x="83.8" y="114.16" width="35.46" height="3.96"/><rect class="cls-7" x="161.76" y="71.78" width="41.41" height="3.96"/><rect class="cls-7" x="88.02" y="0.08" width="38.44" height="3.96"/><circle class="cls-6" cx="182.46" cy="49" r="4.5"/><rect class="cls-7" x="94.48" y="4.04" width="19.06" height="12.67"/><rect class="cls-4" x="113.54" y="4.04" width="6.46" height="12.67"/><polygon class="cls-7" points="145.51 52.31 57.54 52.31 94.49 15.36 182.46 15.36 145.51 52.31"/><rect class="cls-7" x="57.54" y="129.11" width="87.97" height="15.26"/><rect class="cls-8" x="145.51" y="129.11" width="73.89" height="15.26"/><rect class="cls-6" x="169.36" y="75.75" width="26.2" height="68.63"/><circle class="cls-3" cx="43.46" cy="130.29" r="20.42"/><circle class="cls-3" cx="16.71" cy="144.37" r="16.71"/><circle class="cls-3" cx="65.83" cy="144.37" r="16.71"/></g></svg>