<svg id="Work" xmlns="http://www.w3.org/2000/svg" viewBox="0 0 104.77 126.82"><defs><style>.cls-1{fill:#1c9294;}.cls-2{fill:#1c666a;}.cls-3{fill:#f48257;}.cls-4{fill:#f5f4f4;}.cls-5{fill:#f7ac90;}.cls-6{fill:#fff;}</style></defs><title>victimizations-2</title><path class="cls-1" d="M104.52,103.8a52.32,52.32,0,1,0-104.63,0v23H104.52Z"/><path class="cls-2" d="M52.2,51.48a52.06,52.06,0,0,0-28,8.15l70.67,67.19h9.67v-23A52.32,52.32,0,0,0,52.2,51.48Z"/><circle class="cls-3" cx="52.2" cy="22.06" r="21.68"/><circle class="cls-4" cx="52.2" cy="22.06" r="16.84"/><circle class="cls-3" cx="52.2" cy="22.06" r="12.81"/><circle class="cls-4" cx="52.2" cy="22.06" r="8.52"/><circle class="cls-3" cx="52.2" cy="22.06" r="4.28"/><path class="cls-5" d="M52.2,38.9A16.82,16.82,0,0,1,39.46,11.07L35.94,7.72a21.68,21.68,0,0,0,31.4,29.86l-3.52-3.35A16.75,16.75,0,0,1,52.2,38.9Z"/><path class="cls-6" d="M52.2,38.9a16.75,16.75,0,0,0,11.62-4.67l-2.93-2.78a12.8,12.8,0,0,1-18.51-17.6l-2.92-2.78A16.82,16.82,0,0,0,52.2,38.9Z"/><path class="cls-5" d="M52.2,30.58a8.5,8.5,0,0,1-6.7-13.76l-3.12-3a12.8,12.8,0,0,0,18.51,17.6l-3.11-3A8.48,8.48,0,0,1,52.2,30.58Z"/><path class="cls-6" d="M52.2,30.58a8.48,8.48,0,0,0,5.58-2.09l-3.1-2.95a4.27,4.27,0,0,1-6.76-3.48,4.31,4.31,0,0,1,.68-2.3l-3.1-2.94a8.5,8.5,0,0,0,6.7,13.76Z"/><path class="cls-5" d="M47.92,22.06a4.27,4.27,0,0,0,6.76,3.48L48.6,19.76A4.31,4.31,0,0,0,47.92,22.06Z"/><path class="cls-3" d="M73.89,22.06A21.69,21.69,0,0,0,35.94,7.72l3.52,3.35A16.83,16.83,0,1,1,63.82,34.23l3.52,3.35A21.62,21.62,0,0,0,73.89,22.06Z"/><path class="cls-4" d="M52.2,9.25a12.79,12.79,0,0,1,8.69,22.2l2.93,2.78A16.83,16.83,0,1,0,39.46,11.07l2.92,2.78A12.78,12.78,0,0,1,52.2,9.25Z"/><path class="cls-3" d="M65,22.06a12.8,12.8,0,0,0-22.63-8.21l3.12,3A8.51,8.51,0,1,1,57.78,28.49l3.11,3A12.76,12.76,0,0,0,65,22.06Z"/><path class="cls-4" d="M52.2,17.78a4.27,4.27,0,0,1,2.48,7.76l3.1,2.95A8.51,8.51,0,1,0,45.5,16.82l3.1,2.94A4.26,4.26,0,0,1,52.2,17.78Z"/><path class="cls-3" d="M56.48,22.06a4.27,4.27,0,0,0-7.88-2.3l6.08,5.78A4.26,4.26,0,0,0,56.48,22.06Z"/><rect class="cls-5" x="-0.11" y="101.16" width="18.27" height="25.66"/><rect class="cls-5" x="86.25" y="101.16" width="18.27" height="25.66"/><path class="cls-6" d="M104.45,101.16c0,.88.07,1.76.07,2.64v-2.64Z"/><path class="cls-3" d="M86.25,101.16v17.48l8.6,8.18h9.67v-23c0-.88,0-1.76-.07-2.64Z"/></svg>