<svg id="Work" xmlns="http://www.w3.org/2000/svg" viewBox="0 0 40 40"><defs><style>.cls-1{fill:#1c9294;}.cls-2{fill:#6bb8b9;}.cls-3{fill:#fff;}.cls-4{fill:#a2d2d3;}.cls-5{fill:none;stroke:#1c9294;stroke-linecap:round;stroke-miterlimit:10;}</style></defs><title>7000-daily-1</title><circle class="cls-1" cx="20" cy="20" r="20"/><polygon class="cls-2" points="13.82 27.09 34.73 27.09 30.45 11.81 9.55 11.81 13.82 27.09"/><polygon class="cls-1" points="26.18 27.09 5.27 27.09 9.55 11.81 30.45 11.81 26.18 27.09"/><polygon class="cls-3" points="16.36 27.09 5.27 27.09 9.55 11.81 30.45 11.81 28.16 20 16.36 27.09"/><polygon class="cls-4" points="28.16 20 17.75 20 16.36 27.09 28.16 20"/><line class="cls-5" x1="13.58" y1="10.5" x2="12.81" y2="13.31"/><line class="cls-5" x1="17.68" y1="10.5" x2="16.91" y2="13.31"/><line class="cls-5" x1="21.77" y1="10.5" x2="21" y2="13.31"/><line class="cls-5" x1="25.87" y1="10.5" x2="25.1" y2="13.31"/><line class="cls-5" x1="9.91" y1="16.63" x2="13.15" y2="16.63"/><line class="cls-5" x1="14.67" y1="16.63" x2="17.91" y2="16.63"/><line class="cls-5" x1="19.43" y1="16.63" x2="22.67" y2="16.63"/><line class="cls-5" x1="24.19" y1="16.63" x2="27.43" y2="16.63"/><line class="cls-5" x1="9.26" y1="19.03" x2="12.49" y2="19.03"/><line class="cls-5" x1="14.01" y1="19.03" x2="17.25" y2="19.03"/><line class="cls-5" x1="18.77" y1="19.03" x2="22.01" y2="19.03"/><line class="cls-5" x1="23.53" y1="19.03" x2="26.77" y2="19.03"/><line class="cls-5" x1="8.69" y1="21.44" x2="11.92" y2="21.44"/><line class="cls-5" x1="13.44" y1="21.44" x2="16.68" y2="21.44"/><line class="cls-5" x1="7.93" y1="23.84" x2="11.16" y2="23.84"/><line class="cls-5" x1="12.68" y1="23.84" x2="15.92" y2="23.84"/></svg>