<svg id="Work" xmlns="http://www.w3.org/2000/svg" viewBox="0 0 40 40"><defs><style>.cls-1{fill:#1c9294;}.cls-2{fill:#a2d2d3;}.cls-3{fill:#fff;}.cls-4{fill:none;stroke:#1c9294;stroke-linecap:round;stroke-miterlimit:10;}</style></defs><title>february-1</title><circle class="cls-1" cx="20" cy="20" r="20"/><polygon class="cls-2" points="13.82 27.09 34.73 27.09 30.45 11.81 9.55 11.81 13.82 27.09"/><polygon class="cls-3" points="26.18 27.09 5.27 27.09 9.55 11.81 30.45 11.81 26.18 27.09"/><line class="cls-4" x1="13.58" y1="10.5" x2="12.81" y2="13.31"/><line class="cls-4" x1="17.68" y1="10.5" x2="16.91" y2="13.31"/><line class="cls-4" x1="21.77" y1="10.5" x2="21" y2="13.31"/><line class="cls-4" x1="25.87" y1="10.5" x2="25.1" y2="13.31"/><line class="cls-4" x1="9.96" y1="16.63" x2="13.2" y2="16.63"/><line class="cls-4" x1="14.72" y1="16.63" x2="17.96" y2="16.63"/><line class="cls-4" x1="19.48" y1="16.63" x2="22.72" y2="16.63"/><line class="cls-4" x1="24.24" y1="16.63" x2="27.47" y2="16.63"/><line class="cls-4" x1="9.3" y1="19.03" x2="12.54" y2="19.03"/><line class="cls-4" x1="14.06" y1="19.03" x2="17.3" y2="19.03"/><line class="cls-4" x1="18.82" y1="19.03" x2="22.06" y2="19.03"/><line class="cls-4" x1="23.58" y1="19.03" x2="26.82" y2="19.03"/><line class="cls-4" x1="8.73" y1="21.44" x2="11.97" y2="21.44"/><line class="cls-4" x1="13.49" y1="21.44" x2="16.73" y2="21.44"/><line class="cls-4" x1="18.25" y1="21.44" x2="21.49" y2="21.44"/><line class="cls-4" x1="23.01" y1="21.44" x2="26.25" y2="21.44"/><line class="cls-4" x1="7.97" y1="23.84" x2="11.21" y2="23.84"/><line class="cls-4" x1="12.73" y1="23.84" x2="15.97" y2="23.84"/><line class="cls-4" x1="17.49" y1="23.84" x2="20.73" y2="23.84"/><line class="cls-4" x1="22.25" y1="23.84" x2="25.49" y2="23.84"/></svg>