<svg id="Work" xmlns="http://www.w3.org/2000/svg" viewBox="0 0 40 40"><defs><style>.cls-1{fill:#1c9294;}.cls-2{fill:#a2d2d3;}.cls-3{fill:none;stroke:#fff;stroke-linecap:round;stroke-linejoin:round;}</style></defs><title>july-august-1</title><circle class="cls-1" cx="20" cy="20" r="20"/><circle class="cls-2" cx="20" cy="20" r="7.81"/><line class="cls-3" x1="20" y1="9.48" x2="20" y2="6.38"/><line class="cls-3" x1="20" y1="33.63" x2="20" y2="30.52"/><line class="cls-3" x1="30.52" y1="20" x2="33.63" y2="20"/><line class="cls-3" x1="6.38" y1="20" x2="9.48" y2="20"/><line class="cls-3" x1="12.56" y1="12.56" x2="10.37" y2="10.37"/><line class="cls-3" x1="29.63" y1="29.63" x2="27.44" y2="27.44"/><line class="cls-3" x1="27.44" y1="12.56" x2="29.63" y2="10.37"/><line class="cls-3" x1="10.37" y1="29.63" x2="12.56" y2="27.44"/><line class="cls-3" x1="15.89" y1="10.31" x2="14.68" y2="7.46"/><line class="cls-3" x1="25.32" y1="32.54" x2="24.11" y2="29.69"/><line class="cls-3" x1="29.69" y1="15.89" x2="32.54" y2="14.68"/><line class="cls-3" x1="7.46" y1="25.32" x2="10.31" y2="24.11"/><line class="cls-3" x1="10.24" y1="16.06" x2="7.37" y2="14.89"/><line class="cls-3" x1="32.63" y1="25.11" x2="29.76" y2="23.94"/><line class="cls-3" x1="23.94" y1="10.24" x2="25.11" y2="7.37"/><line class="cls-3" x1="14.89" y1="32.63" x2="16.06" y2="29.76"/></svg>