<svg id="Work" xmlns="http://www.w3.org/2000/svg" viewBox="0 0 40 40"><defs><style>.cls-1{fill:#1c9294;}.cls-2{fill:#a2d2d3;}.cls-3{fill:#fff;}.cls-4{fill:none;stroke:#1c9294;stroke-linecap:round;stroke-miterlimit:10;}</style></defs><title>one-month-1</title><circle class="cls-1" cx="20" cy="20" r="20"/><polygon class="cls-2" points="13.67 27.11 34.57 27.11 30.3 11.83 9.39 11.83 13.67 27.11"/><polygon class="cls-3" points="26.02 27.11 5.12 27.11 9.39 11.83 30.3 11.83 26.02 27.11"/><line class="cls-4" x1="13.43" y1="10.52" x2="12.66" y2="13.33"/><line class="cls-4" x1="17.52" y1="10.52" x2="16.75" y2="13.33"/><line class="cls-4" x1="21.62" y1="10.52" x2="20.85" y2="13.33"/><line class="cls-4" x1="25.71" y1="10.52" x2="24.94" y2="13.33"/><line class="cls-4" x1="9.8" y1="16.64" x2="13.04" y2="16.64"/><line class="cls-4" x1="14.56" y1="16.64" x2="17.8" y2="16.64"/><line class="cls-4" x1="19.32" y1="16.64" x2="22.56" y2="16.64"/><line class="cls-4" x1="24.08" y1="16.64" x2="27.32" y2="16.64"/><line class="cls-4" x1="9.15" y1="19.05" x2="12.38" y2="19.05"/><line class="cls-4" x1="13.9" y1="19.05" x2="17.14" y2="19.05"/><line class="cls-4" x1="8.58" y1="21.46" x2="11.82" y2="21.46"/><line class="cls-4" x1="13.34" y1="21.46" x2="16.57" y2="21.46"/><line class="cls-4" x1="7.82" y1="23.86" x2="11.06" y2="23.86"/><line class="cls-4" x1="12.58" y1="23.86" x2="15.81" y2="23.86"/><line class="cls-4" x1="19.32" y1="19.05" x2="24.73" y2="23.86"/><line class="cls-4" x1="17.8" y1="23.86" x2="26.2" y2="19.05"/></svg>