<svg id="Work" xmlns="http://www.w3.org/2000/svg" viewBox="0 0 40 40"><defs><style>.cls-1{fill:#1c9294;}.cls-2{fill:none;stroke:#fff;stroke-linecap:round;stroke-linejoin:round;}.cls-3{fill:#fff;}</style></defs><title>repeat-victim-1</title><circle class="cls-1" cx="20" cy="20" r="20"/><path class="cls-2" d="M34.67,20a14.68,14.68,0,1,1-4.3-10.37"/><polyline class="cls-2" points="30.98 7.69 30.98 10.19 28.52 10.19"/><path class="cls-3" d="M16.05,21.71h-2V16.23l0-.9,0-1a9.33,9.33,0,0,1-.69.65l-1.09.88-1-1.21,3.05-2.43h1.64Z"/><path class="cls-3" d="M22.51,15.29,19,24.76H17.19l3.52-9.47Z"/><path class="cls-3" d="M28.78,20.45A2.24,2.24,0,0,1,28.25,22a2.82,2.82,0,0,1-1.51.86v0a3,3,0,0,1,1.73.69,2,2,0,0,1,.59,1.5,2.51,2.51,0,0,1-1,2.12,4.54,4.54,0,0,1-2.83.76,6.85,6.85,0,0,1-2.73-.51v-1.7a6,6,0,0,0,1.21.45,5,5,0,0,0,1.31.18A2.48,2.48,0,0,0,26.49,26,1.21,1.21,0,0,0,27,24.93a1,1,0,0,0-.54-.95,4.13,4.13,0,0,0-1.74-.27H24V22.17h.74a3.44,3.44,0,0,0,1.61-.29,1,1,0,0,0,.5-1c0-.72-.44-1.08-1.34-1.08a2.92,2.92,0,0,0-.95.16,4.59,4.59,0,0,0-1.07.53l-.93-1.38a5.14,5.14,0,0,1,3.09-.93,4,4,0,0,1,2.32.6A1.89,1.89,0,0,1,28.78,20.45Z"/></svg>