<svg id="Work" xmlns="http://www.w3.org/2000/svg" viewBox="0 0 40 40"><defs><style>.cls-1{fill:#1c9294;}.cls-2{fill:#a2d2d3;}.cls-3{fill:#fff;}.cls-4{fill:none;stroke:#fff;stroke-linecap:round;stroke-miterlimit:10;}</style></defs><title>second-month-1</title><circle class="cls-1" cx="20" cy="20" r="20"/><path class="cls-2" d="M23.74,18,20,20.67,16.26,18a4.24,4.24,0,0,1-1.76-3.44V9.67h11v4.85A4.24,4.24,0,0,1,23.74,18Z"/><path class="cls-2" d="M23.74,22,20,19.33,16.26,22a4.24,4.24,0,0,0-1.76,3.44v4.85h11V25.48A4.24,4.24,0,0,0,23.74,22Z"/><path class="cls-3" d="M22.19,25,20,23.43,17.81,25a2.5,2.5,0,0,0-1,2v2.83h6.42V27A2.5,2.5,0,0,0,22.19,25Z"/><path class="cls-3" d="M23.21,14.79a2.49,2.49,0,0,1-1,2L20,18.38,17.81,16.8a2.49,2.49,0,0,1-1-2,4.29,4.29,0,0,1,3.36,0C22.29,15.5,23.21,14.79,23.21,14.79Z"/><line class="cls-4" x1="13.5" y1="9.67" x2="26.5" y2="9.67"/><line class="cls-4" x1="13.5" y1="30.33" x2="26.5" y2="30.33"/></svg>