<svg id="Work" xmlns="http://www.w3.org/2000/svg" viewBox="0 0 40 40"><defs><style>.cls-1{fill:#1c9294;}.cls-2{fill:#a2d2d3;}.cls-3{fill:none;stroke:#fff;stroke-linecap:round;stroke-linejoin:round;}</style></defs><title>summer-1</title><circle class="cls-1" cx="20" cy="20" r="20"/><path class="cls-2" d="M9.14,13.81s-5.06,7.37,2.77,15.72c0,0,1-7.47,7.76-9.53,0,0-1.35-1-1.13-4.05C18.54,16,16,13,9.14,13.81Z"/><path class="cls-2" d="M22.91,21s2.48,3.35,2.48,10.2c0,0,5.08-1.27,6.74-8.66a14.89,14.89,0,0,0-6.74-3.81S25.28,19.67,22.91,21Z"/><path class="cls-2" d="M22.38,13.81A6.24,6.24,0,0,1,25.69,16a16.61,16.61,0,0,1,5.56-1.07,10.16,10.16,0,0,0-8.25-7l-.77,3.17Z"/><circle class="cls-3" cx="20" cy="20" r="12.5"/><circle class="cls-3" cx="22.11" cy="17.39" r="3.57"/><path class="cls-3" d="M18.84,16s-3.15-3.23-9.7-2.14"/><path class="cls-3" d="M19.47,19.79a12.72,12.72,0,0,0-7.56,9.74"/><path class="cls-3" d="M25.39,16a7.38,7.38,0,0,1,6-1.07"/><path class="cls-3" d="M22.75,20.9s2.94,2.85,2.64,10.38"/><path class="cls-3" d="M25.39,18.82A10.77,10.77,0,0,1,32,23.08"/><path class="cls-3" d="M23,7.91s-1.19,1.49-.62,5.9"/></svg>