<svg id="Work" xmlns="http://www.w3.org/2000/svg" viewBox="0 0 40 40"><defs><style>.cls-1{fill:#1c9294;}.cls-2{fill:none;stroke:#fff;stroke-linecap:round;stroke-linejoin:round;}</style></defs><title>winter-1</title><circle class="cls-1" cx="20" cy="20" r="20"/><polyline class="cls-2" points="17.12 8.98 20 11.86 20 28.14 17.1 31.04"/><line class="cls-2" x1="20" y1="11.86" x2="22.85" y2="9.01"/><line class="cls-2" x1="20" y1="28.14" x2="22.87" y2="31.01"/><line class="cls-2" x1="20" y1="27.63" x2="20" y2="31.93"/><line class="cls-2" x1="20" y1="12.11" x2="20" y2="8.08"/><polyline class="cls-2" points="31.01 17.14 28.13 20.02 11.86 20.02 8.96 17.12"/><line class="cls-2" x1="28.13" y1="20.02" x2="30.98" y2="22.87"/><line class="cls-2" x1="11.85" y1="20.02" x2="8.98" y2="22.89"/><line class="cls-2" x1="12.36" y1="20.02" x2="8.07" y2="20.02"/><line class="cls-2" x1="27.89" y1="20.02" x2="31.91" y2="20.02"/><polyline class="cls-2" points="10.16 14.24 14.24 14.24 25.75 25.75 25.75 29.85"/><line class="cls-2" x1="14.24" y1="14.24" x2="14.24" y2="10.21"/><line class="cls-2" x1="25.75" y1="25.75" x2="29.81" y2="25.75"/><line class="cls-2" x1="25.39" y1="25.39" x2="28.42" y2="28.43"/><line class="cls-2" x1="14.41" y1="14.41" x2="11.56" y2="11.57"/><polyline class="cls-2" points="25.75 10.18 25.75 14.26 14.24 25.76 10.15 25.76"/><line class="cls-2" x1="25.75" y1="14.26" x2="29.79" y2="14.26"/><line class="cls-2" x1="14.24" y1="25.76" x2="14.24" y2="29.83"/><line class="cls-2" x1="14.6" y1="25.41" x2="11.56" y2="28.44"/><line class="cls-2" x1="25.58" y1="14.43" x2="28.42" y2="11.58"/></svg>