<?xml version="1.0" encoding="utf-8"?>
<!-- Generator: Adobe Illustrator 21.1.0, SVG Export Plug-In . SVG Version: 6.00 Build 0)  -->
<svg version="1.1" id="Layer_1" xmlns="http://www.w3.org/2000/svg" xmlns:xlink="http://www.w3.org/1999/xlink" x="0px" y="0px"
	 viewBox="0 0 24 24" style="enable-background:new 0 0 24 24;" xml:space="preserve">
<style type="text/css">
	.st0{fill:none;}
</style>
<title  id="simpleicons-twitter-icon">Twitter icon</title>
<g>
	<line class="st0" x1="0" y1="8.4" x2="0" y2="6.6"/>
</g>
<path d="M19,9c0,0.2-0.1,0.3-0.2,0.4l-8.3,8.3c-0.1,0.1-0.3,0.2-0.4,0.2c-0.2,0-0.3-0.1-0.4-0.2l-4.4-4.4C5.1,13.2,5,13,5,12.9
	c0-0.2,0.1-0.3,0.2-0.4l1.1-1.1c0.1-0.1,0.2-0.1,0.4-0.1c0.2,0,0.3,0,0.4,0.1l2.9,3l6.9-6.8c0.1-0.1,0.2-0.1,0.4-0.1
	c0.2,0,0.3,0.1,0.4,0.2l1.1,1.1C18.9,8.7,19,8.9,19,9 M7.2,3.6c-1.5,0.9-2.7,2-3.5,3.5C2.8,8.6,2.3,10.3,2.3,12s0.4,3.4,1.3,4.8
	c0.9,1.5,2,2.7,3.5,3.5s3.1,1.3,4.8,1.3c1.7,0,3.4-0.4,4.8-1.3s2.7-2,3.5-3.5c0.9-1.5,1.3-3.1,1.3-4.8s-0.4-3.4-1.3-4.8
	c-0.9-1.5-2-2.7-3.5-3.5c-1.5-0.9-3.1-1.3-4.8-1.3C10.3,2.3,8.6,2.8,7.2,3.6 M18,1.6c1.8,1.1,3.3,2.5,4.4,4.4c1.1,1.8,1.6,3.8,1.6,6
	c0,2.2-0.5,4.2-1.6,6c-1.1,1.8-2.5,3.3-4.4,4.4c-1.8,1.1-3.8,1.6-6,1.6c-2.2,0-4.2-0.5-6-1.6c-1.8-1.1-3.3-2.5-4.4-4.4
	C0.5,16.2,0,14.2,0,12c0-2.2,0.5-4.2,1.6-6C2.7,4.2,4.2,2.7,6,1.6C7.8,0.5,9.8,0,12,0C14.2,0,16.2,0.5,18,1.6"/>
</svg>
