<svg id="Layer_1" data-name="Layer 1" xmlns="http://www.w3.org/2000/svg" viewBox="0 0 500 500"><defs><style>.cls-1{fill:#ef5323}</style></defs><path class="cls-1" d="M5 5v490h490V5zm465 465H30V30h440z"/><path class="cls-1" d="M116 396.5a12.46 12.46 0 0 0 8.84-3.66l245.57-245.58-4.09 118.64a12.51 12.51 0 0 0 12.07 12.92h.43a12.5 12.5 0 0 0 12.49-12.07l5.18-150.33v-.19-.74-.51c0-.17-.05-.51-.09-.76s0-.31-.07-.47-.12-.55-.19-.83c0-.12-.05-.25-.09-.37-.09-.32-.2-.64-.32-1a1.72 1.72 0 0 0-.07-.21c-.15-.37-.32-.74-.5-1.1a12.46 12.46 0 0 0-6.51-5.89h-.08c-.36-.14-.72-.26-1.09-.37l-.3-.07a8.82 8.82 0 0 0-.89-.2l-.46-.07c-.25 0-.5-.07-.76-.09s-.35 0-.53 0h-.71a1.34 1.34 0 0 0-.2 0l-150.33 5.18a12.5 12.5 0 0 0 .86 25l118.64-4.09-245.64 245.52A12.5 12.5 0 0 0 116 396.5z"/></svg>