<svg xmlns="http://www.w3.org/2000/svg" viewBox="0 0 24 24" width="20" height="20"><path fill="none" d="M0 8.4V6.6"/><path d="M19 9c0 .2-.1.3-.2.4l-8.3 8.3c-.1.1-.3.2-.4.2-.2 0-.3-.1-.4-.2l-4.4-4.4c-.2-.1-.3-.3-.3-.4 0-.2.1-.3.2-.4l1.1-1.1c.1-.1.2-.1.4-.1s.3 0 .4.1l2.9 3 6.9-6.8c.1-.1.2-.1.4-.1s.3.1.4.2l1.1 1.1c.1-.1.2.1.2.2M7.2 3.6c-1.5.9-2.7 2-3.5 3.5-.9 1.5-1.4 3.2-1.4 4.9s.4 3.4 1.3 4.8c.9 1.5 2 2.7 3.5 3.5s3.1 1.3 4.8 1.3c1.7 0 3.4-.4 4.8-1.3s2.7-2 3.5-3.5c.9-1.5 1.3-3.1 1.3-4.8s-.4-3.4-1.3-4.8c-.9-1.5-2-2.7-3.5-3.5-1.5-.9-3.1-1.3-4.8-1.3-1.6-.1-3.3.4-4.7 1.2m10.8-2c1.8 1.1 3.3 2.5 4.4 4.4 1.1 1.8 1.6 3.8 1.6 6s-.5 4.2-1.6 6c-1.1 1.8-2.5 3.3-4.4 4.4-1.8 1.1-3.8 1.6-6 1.6s-4.2-.5-6-1.6c-1.8-1.1-3.3-2.5-4.4-4.4C.5 16.2 0 14.2 0 12s.5-4.2 1.6-6C2.7 4.2 4.2 2.7 6 1.6 7.8.5 9.8 0 12 0s4.2.5 6 1.6" fill="#1c9294"/></svg>