<?xml version="1.0" encoding="utf-8"?>
<!-- Generator: Adobe Illustrator 21.1.0, SVG Export Plug-In . SVG Version: 6.00 Build 0)  -->
<svg version="1.1" id="Layer_1" xmlns="http://www.w3.org/2000/svg" xmlns:xlink="http://www.w3.org/1999/xlink" x="0px" y="0px"
	 viewBox="0 0 22.2 22.8" style="enable-background:new 0 0 22.2 22.8;" xml:space="preserve">
<title  id="simpleicons-twitter-icon">Twitter icon</title>
<g>
	<path d="M16.1,14.5C17.2,13,18,11.1,18,9c0-5-4-9-9-9C4,0,0,4,0,9c0,5,4,9,9,9c1.8,0,3.5-0.5,4.9-1.5l6.2,6.2l2.1-2.1L16.1,14.5z
		 M2,9c0-3.8,3.1-7,7-7c3.8,0,7,3.1,7,7c0,3.9-3.1,7-7,7C5.1,16,2,12.9,2,9z"/>
</g>
</svg>
