<svg xmlns="http://www.w3.org/2000/svg" viewBox="0 0 656.07 656.05"><g data-name="Layer 2"><g data-name="Layer 1"><path d="M471 391.19l43.6 43.61-43.6-43.63z" fill="none"/><path d="M213.21 426.74a211.5 211.5 0 0 0 126.32-41.68l10.73 10.81 4.66 4.7L386 431.9a32.89 32.89 0 0 0 2.8 36.71l179 179a28.71 28.71 0 0 0 40.6 0l39.2-39.2a28.71 28.71 0 0 0 0-40.6l-89.44-89.43-43.55-43.58L471 391.17a31.89 31.89 0 0 0-39.08-4.83l-31.46-31.45-4.61-4.62-11.1-11.09a210.46 210.46 0 0 0 41.71-126C426.44 95.6 330.78 0 213.2 0S0 95.6 0 213.21s95.62 213.53 213.21 213.53zM64.61 213.2c0-81.72 66.56-148.6 148.61-148.6s148.58 66.88 148.59 148.6c0 82.05-66.53 148.92-148.59 148.92S64.61 295.25 64.61 213.2z" fill="#1c9294"/><path d="M213.22 330.31c-64.51 0-116.84-52.57-116.84-117.08C96.38 149 148.71 96.4 213.22 96.4S330 149 330 213.23c0 64.51-52.27 117.08-116.78 117.08z" fill="#ef5323"/><path d="M198.59 238.67v-5.73q0-9.84 3.57-16.37t12.52-13.5q10.65-8.4 13.74-13.06a19.65 19.65 0 0 0 3.08-11.09q0-7.51-5-11.54t-14.4-4a49.51 49.51 0 0 0-15.74 2.41 111.07 111.07 0 0 0-14.13 5.82l-7.51-15.75a78.79 78.79 0 0 1 38.9-10.1q17.53 0 27.82 8.58T251.72 178a33.82 33.82 0 0 1-2 11.94 34.63 34.63 0 0 1-5.95 10q-4 4.74-13.73 12.34-8.31 6.54-11.14 10.82t-2.81 11.54v4zm-3.67 28.53q0-13.5 13.15-13.51 6.44 0 9.83 3.54t3.41 10q0 6.35-3.45 10.06t-9.79 3.71q-6.36 0-9.75-3.62t-3.4-10.18z" fill="#fff"/></g></g></svg>
