<svg xmlns="http://www.w3.org/2000/svg" viewBox="0 0 24 24" width="24" height="24"><path d="M24 2v20c0 1.1-.9 2-2 2H8.3c.5-.9 1.2-2.2 1.5-3.2l.8-3.1c.4.8 1.7 1.5 3 1.5 4 0 6.8-3.6 6.8-8.1 0-4.3-3.5-7.6-8.1-7.6-5.7 0-8.7 3.8-8.7 7.9 0 1.9 1 4.3 2.7 5.1.2.1.4.1.4-.2 0-.2.3-1.1.4-1.5 0-.1 0-.2-.1-.4-.5-.7-1-1.9-1-3 0-2.9 2.2-5.7 5.9-5.7 3.2 0 5.5 2.2 5.5 5.3 0 3.5-1.8 6-4.1 6-1.3 0-2.2-1.1-1.9-2.4.4-1.6 1.1-3.2 1.1-4.4 0-1-.5-1.9-1.7-1.9-1.3 0-2.4 1.4-2.4 3.2 0 1.2.4 1.9.4 1.9s-1.3 5.5-1.5 6.5c-.4 1.5-.2 3.6 0 4.1H2c-1.1 0-2-.9-2-2V2C0 .9.9 0 2 0h20c1.1 0 2 .9 2 2z"/></svg>
