<svg id="Layer_1" data-name="Layer 1" xmlns="http://www.w3.org/2000/svg" viewBox="0 0 250 200"><defs><style>.cls-1{fill:#b5c0ca;}</style></defs><title>social</title><path class="cls-1" d="M201.78,26.12c4.29.48,13.73.48,22.05,9.18,0,0,6.73,6.51,8.7,21.48a289.44,289.44,0,0,1,2.2,35v16.42a289.44,289.44,0,0,1-2.2,35c-2,14.85-8.7,21.48-8.7,21.48-8.32,8.57-17.76,8.57-22.05,9.06,0,0-30.61,2.29-76.78,2.29-57.07-.48-74.58-2.17-74.58-2.17-4.91-.85-15.93-.61-24.25-9.18,0,0-6.73-6.63-8.7-21.48a289.44,289.44,0,0,1-2.2-35V91.79a289.44,289.44,0,0,1,2.2-35c2-15,8.7-21.48,8.7-21.48,8.32-8.7,17.76-8.7,22-9.18,0,0,30.61-2.17,76.78-2.17S201.78,26.12,201.78,26.12ZM161.62,97.83,102.34,67.29V128Z"/></svg>