<svg id="Layer_1" data-name="Layer 1" xmlns="http://www.w3.org/2000/svg" viewBox="0 0 250 200"><defs><style>.cls-1{fill:#b5c0ca;}</style></defs><title>social</title><path class="cls-1" d="M205.71,59.2c.12,1.78.12,3.56.12,5.34,0,54.27-41.89,116.79-118.47,116.79a118.91,118.91,0,0,1-64-18.43,85.67,85.67,0,0,0,10.06.52,84.21,84.21,0,0,0,51.7-17.54,41.65,41.65,0,0,1-38.93-28.47,53.32,53.32,0,0,0,7.86.64,44.67,44.67,0,0,0,11-1.4,41.21,41.21,0,0,1-33.4-40.29v-.51a42.28,42.28,0,0,0,18.83,5.21A40.86,40.86,0,0,1,31.92,46.88a40.21,40.21,0,0,1,5.67-20.72,118.94,118.94,0,0,0,85.87,43,45.35,45.35,0,0,1-1-9.4c0-22.62,18.57-41,41.64-41a41.86,41.86,0,0,1,30.44,13,82.57,82.57,0,0,0,26.42-9.92,41.08,41.08,0,0,1-18.31,22.63,84.46,84.46,0,0,0,24-6.36A89,89,0,0,1,205.71,59.2Z"/></svg>