<svg xmlns="http://www.w3.org/2000/svg" viewBox="0 0 24 24" width="24" height="24"><path d="M22 0H2C.9 0 0 .9 0 2v20c0 1.1.9 2 2 2h20c1.1 0 2-.9 2-2V2c0-1.1-.9-2-2-2zm-2.7 8.2v.5c0 5-3.8 10.8-10.8 10.8-2.2 0-4.1-.6-5.8-1.7h.9c1.8 0 3.4-.6 4.7-1.6-1.7 0-3.1-1.1-3.5-2.6.2 0 .5.1.7.1.3 0 .7 0 1-.1-1.7-.3-3-1.9-3-3.7.5.3 1.1.4 1.7.5-1-.7-1.7-1.8-1.7-3.2 0-.7.2-1.3.5-1.9 1.9 2.3 4.7 3.8 7.8 4-.1-.3-.1-.6-.1-.9 0-2.1 1.7-3.8 3.8-3.8 1.1 0 2.1.5 2.8 1.2.9-.2 1.7-.5 2.4-.9-.3.9-.9 1.6-1.7 2.1.8-.1 1.5-.3 2.2-.6-.5.6-1.1 1.3-1.9 1.8z"/></svg>
